wght100_wdth50.ufo
<glyph name="zero" format="2">
	<unicode hex="0030"/>
	<advance width="1189"/>
	<outline>
		<contour>
			<point x="101.2845697958" y="872.5565185547" type="qcurve" smooth="yes"/>
			<point x="177.6081171591" y="1174.8764038086"/>
			<point x="548.3099365234" y="1554.6978149414"/>
			<point x="770.6539306641" y="1524.9899902344" type="qcurve" smooth="yes"/>
			<point x="1007.9115600586" y="1492.2821655273"/>
			<point x="1158.0359736044" y="1000.358215332"/>
			<point x="1097.4202509481" y="699.6469116211" type="qcurve" smooth="yes"/>
			<point x="1029.4562006552" y="369.1646728516"/>
			<point x="653.6680908203" y="-49.8201293945"/>
			<point x="424.2537841797" y="-24" type="qcurve" smooth="yes"/>
			<point x="195.0244750977" y="-0.1798706055"/>
			<point x="12.960839327" y="516.9368286133"/>
		</contour>
		<contour>
			<point x="282.4205322266" y="856.2864990234" type="qcurve" smooth="yes"/>
			<point x="216.4747314453" y="565.2818603516"/>
			<point x="294.2030029297" y="112.0029296875"/>
			<point x="442.8004150391" y="89.0029296875" type="qcurve" smooth="yes"/>
			<point x="612.6975097656" y="64.0029296875"/>
			<point x="853.4475097656" y="416.6833496094"/>
			<point x="916.8658447266" y="720.7596435547" type="qcurve" smooth="yes"/>
			<point x="978.1689453125" y="1013.7652587891"/>
			<point x="893.9705810547" y="1384.5252685547"/>
			<point x="742.0729980469" y="1408.5252685547" type="qcurve" smooth="yes"/>
			<point x="585.9759521484" y="1433.5252685547"/>
			<point x="348.2235107422" y="1144.3627929688"/>
		</contour>
	</outline>
</glyph>
<glyph name="one" format="2">
	<unicode hex="0031"/>
	<advance width="739"/>
	<outline>
		<contour>
			<point x="187.4608154297" y="-11.3074951172" type="line"/>
			<point x="198.4960327148" y="55.4937744141"/>
			<point x="220.125" y="169.0563964844"/>
			<point x="240.1290283203" y="276.1732177734" type="qcurve" smooth="yes"/>
			<point x="389.3828125" y="1034.701965332" type="line"/>
			<point x="430.9821166992" y="1303.5142211914" type="line"/>
			<point x="107.1217651367" y="1128.8189697266" type="line"/>
			<point x="70.274597168" y="1229.8986816406" type="line"/>
			<point x="607.0647583008" y="1525.9738769531" type="line"/>
			<point x="642.7583618164" y="1497.2806396484" type="line"/>
			<point x="634.7845458984" y="1463.0029296875"/>
			<point x="616.1383666992" y="1310.9264526367"/>
			<point x="613.2474975586" y="1300.3901977539" type="qcurve" smooth="yes"/>
			<point x="496.9214477539" y="719.9506835938" type="line"/>
			<point x="406.7817993164" y="149.1630249023" type="line"/>
			<point x="235.1547851562" y="-34.0775146484" type="line"/>
		</contour>
	</outline>
</glyph>
<glyph name="two" format="2">
	<unicode hex="0032"/>
	<advance width="911"/>
	<outline>
		<contour>
			<point x="-65.5308227539" y="11.0483398438" type="qcurve"/>
			<point x="-100.4725341797" y="66.346862793" type="line"/>
			<point x="28.1098022461" y="183.7642211914" type="line" smooth="yes"/>
			<point x="399.1925048828" y="522.971496582"/>
			<point x="687.3632202148" y="1019.244140625"/>
			<point x="682.8908691406" y="1184.6717529297" type="qcurve" smooth="yes"/>
			<point x="681.8764648438" y="1279.7514648438"/>
			<point x="577.3442993164" y="1398.8094482422"/>
			<point x="468.5100097656" y="1398.8094482422" type="qcurve" smooth="yes"/>
			<point x="357.5110473633" y="1398.8094482422"/>
			<point x="245.8340454102" y="1311.0230102539"/>
			<point x="178.2451171875" y="1232.9063110352" type="qcurve"/>
			<point x="106.4448852539" y="1309.5134277344" type="line"/>
			<point x="188.2413330078" y="1408.2233276367"/>
			<point x="346.1904907227" y="1522.0101318359"/>
			<point x="481.9354858398" y="1522.0101318359" type="qcurve" smooth="yes"/>
			<point x="674.471862793" y="1522.0101318359"/>
			<point x="880.456237793" y="1329.8620605469"/>
			<point x="877.2985229492" y="1187.573059082" type="qcurve" smooth="yes"/>
			<point x="873.6461791992" y="981.1314697266"/>
			<point x="493.7683105469" y="467.4074707031"/>
			<point x="256.0499267578" y="269.6242675781" type="qcurve"/>
			<point x="248.1665649414" y="277.8468017578" type="line"/>
			<point x="236.4787597656" y="265.2657470703"/>
			<point x="193.364074707" y="263.4038085938"/>
			<point x="170.4153442383" y="266.7608032227" type="qcurve"/>
			<point x="305.3532714844" y="254.0953369141"/>
			<point x="477.2216186523" y="197.3057250977"/>
			<point x="598.3197021484" y="160.5833740234" type="qcurve"/>
			<point x="730.6075439453" y="379.6188354492" type="line"/>
			<point x="801.3620605469" y="363.9479980469" type="line"/>
			<point x="655.5823974609" y="-32.6011962891" type="line"/>
			<point x="498.7467041016" y="7.1067504883"/>
			<point x="261.7661132812" y="88.7344970703"/>
			<point x="154.0940551758" y="88.1349487305" type="qcurve" smooth="yes"/>
			<point x="83.8244628906" y="87.5374145508"/>
			<point x="-15.0046386719" y="46.0926513672"/>
		</contour>
	</outline>
</glyph>
<glyph name="three" format="2">
	<unicode hex="0033"/>
	<advance width="1042"/>
	<outline>
		<contour>
			<point x="-22.1409912109" y="167.9453125" type="qcurve"/>
			<point x="-22.1409912109" y="239.9571533203"/>
			<point x="79.3321533203" y="360.8825683594"/>
			<point x="142.4564208984" y="378.2756958008" type="qcurve"/>
			<point x="176.8046875" y="374.4790649414" type="line"/>
			<point x="160.8834228516" y="338.4689941406"/>
			<point x="142.3414916992" y="271.3773803711"/>
			<point x="142.7261352539" y="215.36328125" type="qcurve" smooth="yes"/>
			<point x="142.7822875977" y="146.8237304688"/>
			<point x="239.8526000977" y="83.6219482422"/>
			<point x="320.984375" y="83.6219482422" type="qcurve" smooth="yes"/>
			<point x="498.6366577148" y="83.6219482422"/>
			<point x="687.6968994141" y="294.9994506836"/>
			<point x="704.0452270508" y="447.2886352539" type="qcurve" smooth="yes"/>
			<point x="721.6407470703" y="599.2706298828"/>
			<point x="585.8984985352" y="774.3659057617"/>
			<point x="416.9526977539" y="787.9208374023" type="qcurve" smooth="yes"/>
			<point x="335.458984375" y="793.7373046875" type="line"/>
			<point x="348.4799804688" y="882.4340209961" type="line"/>
			<point x="408.4907226562" y="887.2821044922" type="line" smooth="yes"/>
			<point x="592.1513671875" y="901.5540161133"/>
			<point x="754.1506347656" y="1078.7152709961"/>
			<point x="761.2067871094" y="1202.4852294922" type="qcurve" smooth="yes"/>
			<point x="766.1506347656" y="1284.6149291992"/>
			<point x="690.3012084961" y="1402.7653808594"/>
			<point x="578.3157348633" y="1402.7653808594" type="qcurve" smooth="yes"/>
			<point x="470.4636230469" y="1402.7653808594"/>
			<point x="334.5155029297" y="1322.6473388672"/>
			<point x="277.7591552734" y="1253.9821777344" type="qcurve"/>
			<point x="207.8854370117" y="1323.4814453125" type="line"/>
			<point x="262.2141723633" y="1399.9496459961"/>
			<point x="467.8834838867" y="1522.7239990234"/>
			<point x="636.7559204102" y="1522.7239990234" type="qcurve" smooth="yes"/>
			<point x="782.9630126953" y="1522.7239990234"/>
			<point x="952.298828125" y="1384.4923095703"/>
			<point x="946.298828125" y="1230.2209472656" type="qcurve" smooth="yes"/>
			<point x="940.298828125" y="1096.9594116211"/>
			<point x="795.3659667969" y="881.9359741211"/>
			<point x="647.155090332" y="853.5963745117" type="qcurve"/>
			<point x="646.0989379883" y="848.5883178711" type="line"/>
			<point x="779.6362915039" y="817.1297607422"/>
			<point x="906.1712646484" y="597.4938964844"/>
			<point x="892.1712646484" y="446.7822875977" type="qcurve" smooth="yes"/>
			<point x="876.3397216797" y="265.4046630859"/>
			<point x="547.684753418" y="-19"/>
			<point x="279.8815917969" y="-19" type="qcurve" smooth="yes"/>
			<point x="131.3330078125" y="-19"/>
			<point x="-22.1409912109" y="93.9307250977"/>
		</contour>
	</outline>
</glyph>
<glyph name="four" format="2">
	<unicode hex="0034"/>
	<advance width="987"/>
	<outline>
		<contour>
			<point x="4.3576049805" y="457.9146728516" type="line"/>
			<point x="5.1268920898" y="528.3011474609" type="line"/>
			<point x="850.5212402344" y="1522.9577636719" type="line"/>
			<point x="927.2076416016" y="1483.1145629883" type="line"/>
			<point x="931.3762817383" y="1442.5190429688" type="line"/>
			<point x="762.9271850586" y="530.6082763672" type="line"/>
			<point x="756.9271850586" y="497.6082763672" type="line"/>
			<point x="680.5196533203" y="124.4075317383" type="line"/>
			<point x="674.1481323242" y="19.1462402344" type="line"/>
			<point x="488.7753295898" y="-33.6745605469" type="line"/>
			<point x="468.1798095703" y="-23.4835205078" type="line"/>
			<point x="582.2843017578" y="493.6082763672" type="line"/>
			<point x="589.2843017578" y="530.6082763672" type="line"/>
			<point x="725.1841430664" y="1243.1420288086" type="line"/>
			<point x="177.5087280273" y="575.1479492188" type="line"/>
			<point x="185.2780151367" y="566.2247314453" type="line"/>
			<point x="672.9013061523" y="559.5325927734" type="line"/>
			<point x="890.3134155273" y="562.1479492188" type="line"/>
			<point x="864.543762207" y="446.9146728516" type="line"/>
			<point x="659.131652832" y="450.6068115234" type="line"/>
		</contour>
	</outline>
</glyph>
<glyph name="five" format="2">
	<unicode hex="0035"/>
	<advance width="974"/>
	<outline>
		<contour>
			<point x="-85.7402954102" y="222.2276000977" type="qcurve" smooth="yes"/>
			<point x="-85.7402954102" y="295.5540771484"/>
			<point x="-21.2476806641" y="361.8729858398"/>
			<point x="25.1371459961" y="371.7184448242" type="qcurve"/>
			<point x="45.9013061523" y="363.3283081055" type="line"/>
			<point x="50.6654663086" y="198.8885498047" type="line" smooth="yes"/>
			<point x="102.4757080078" y="174.6768798828"/>
			<point x="160.9428100586" y="82.3063964844"/>
			<point x="255.3352050781" y="82.3063964844" type="qcurve" smooth="yes"/>
			<point x="455.2750854492" y="82.3063964844"/>
			<point x="661.6447143555" y="352.5988769531"/>
			<point x="670.8731079102" y="548.8338623047" type="qcurve" smooth="yes"/>
			<point x="679.1576538086" y="718.7144775391"/>
			<point x="525.7173461914" y="886.6782226562"/>
			<point x="307.4276123047" y="813.2186889648" type="qcurve" smooth="yes"/>
			<point x="207.8022460938" y="781.4278564453" type="line"/>
			<point x="164.1805419922" y="845.1193847656" type="line"/>
			<point x="321.7543334961" y="1450.5248413086" type="line"/>
			<point x="369.0805664062" y="1501.9839477539" type="line"/>
			<point x="990.0808105469" y="1501.9839477539" type="line"/>
			<point x="957.8107299805" y="1323.3410644531" type="line"/>
			<point x="405.9111938477" y="1323.3410644531" type="line"/>
			<point x="395.1470336914" y="1313.1583251953" type="line"/>
			<point x="347.5081176758" y="1122.7897338867"/>
			<point x="298.2299804688" y="927.4556274414"/>
			<point x="265.8110961914" y="886.74609375" type="qcurve"/>
			<point x="503.8255004883" y="948.3125610352" type="line"/>
			<point x="714.9938354492" y="945.637878418"/>
			<point x="881.1008911133" y="750.9838867188"/>
			<point x="868.830871582" y="566.7754516602" type="qcurve" smooth="yes"/>
			<point x="852.7854614258" y="314.4241943359"/>
			<point x="511.0051879883" y="-17"/>
			<point x="235.6496582031" y="-17" type="qcurve" smooth="yes"/>
			<point x="64.4869384766" y="-17"/>
			<point x="-85.7402954102" y="121.1309204102"/>
		</contour>
	</outline>
</glyph>
<glyph name="six" format="2">
	<unicode hex="0036"/>
	<advance width="1086"/>
	<outline>
		<contour>
			<point x="44.8315429688" y="545.5924072266" type="qcurve" smooth="yes"/>
			<point x="85.9553222656" y="874.0856323242"/>
			<point x="652.7706298828" y="1461.1836547852"/>
			<point x="1017.4744262695" y="1563.6499633789" type="qcurve"/>
			<point x="1058.2583007812" y="1476.5899047852" type="line"/>
			<point x="771.1383666992" y="1383.0016479492"/>
			<point x="264.024597168" y="863.6292724609"/>
			<point x="229.5643310547" y="525.8998413086" type="qcurve" smooth="yes"/>
			<point x="203.0083618164" y="343.0292358398"/>
			<point x="323.9618530273" y="88.0550537109"/>
			<point x="465.7743530273" y="88.5944213867" type="qcurve" smooth="yes"/>
			<point x="594.4375610352" y="88.4821166992"/>
			<point x="773.2543334961" y="327.4932250977"/>
			<point x="792.7901000977" y="505.5509643555" type="qcurve" smooth="yes"/>
			<point x="818.3780517578" y="639.4964599609"/>
			<point x="741.9274902344" y="793.9946899414"/>
			<point x="635.3837890625" y="794.0508422852" type="qcurve" smooth="yes"/>
			<point x="569.3538818359" y="794.1069946289"/>
			<point x="466.6001586914" y="764.8278808594"/>
			<point x="427.7502441406" y="741.6300048828" type="qcurve"/>
			<point x="390.2501831055" y="815.0570068359" type="line"/>
			<point x="442.2723388672" y="853.1614990234"/>
			<point x="576.3622436523" y="910.0557861328"/>
			<point x="661.8012084961" y="910.9996337891" type="qcurve" smooth="yes"/>
			<point x="836.854675293" y="912.8873291016"/>
			<point x="1009.6721801758" y="703.7699584961"/>
			<point x="978.143737793" y="511.0174560547" type="qcurve" smooth="yes"/>
			<point x="946.862487793" y="279.5739746094"/>
			<point x="651.0188598633" y="-22.4606323242"/>
			<point x="444.7733154297" y="-22.4044799805" type="qcurve" smooth="yes"/>
			<point x="230.6385498047" y="-22.9438476562"/>
			<point x="9.1010742188" y="273.7616577148"/>
		</contour>
	</outline>
</glyph>
<glyph name="seven" format="2">
	<unicode hex="0037"/>
	<advance width="922"/>
	<outline>
		<contour>
			<point x="81.3418579102" y="1153.2720336914" type="line"/>
			<point x="194.9616699219" y="1501.9879760742" type="line"/>
			<point x="985.9028320312" y="1501.9879760742" type="line"/>
			<point x="1001.0861816406" y="1443.0640258789" type="line"/>
			<point x="760.8256225586" y="1128.3270263672"/>
			<point x="300.635925293" y="339.2421875"/>
			<point x="254.5174560547" y="47.0684814453" type="qcurve"/>
			<point x="51.649597168" y="-32" type="line"/>
			<point x="6.8623657227" y="51.0908813477" type="line"/>
			<point x="102.3051757812" y="331.0494384766"/>
			<point x="593.5461425781" y="1050.7529907227"/>
			<point x="793.2058105469" y="1319.1092529297" type="qcurve"/>
			<point x="788.0373535156" y="1328.1092529297" type="line"/>
			<point x="274.8953857422" y="1328.1092529297" type="line"/>
			<point x="184.3427124023" y="1153.3108520508" type="line"/>
		</contour>
	</outline>
</glyph>
<glyph name="eight" format="2">
	<unicode hex="0038"/>
	<advance width="961"/>
	<outline>
		<contour>
			<point x="442.5223999023" y="858.3480224609" type="qcurve"/>
			<point x="510.8012084961" y="788.7643432617" type="line"/>
			<point x="371.0560913086" y="706.2608032227"/>
			<point x="97.5594482422" y="488.7938232422"/>
			<point x="100.1189575195" y="324.8570556641" type="qcurve" smooth="yes"/>
			<point x="102.5100097656" y="206.5494995117"/>
			<point x="227.329284668" y="83.1734619141"/>
			<point x="356.3690795898" y="83.2296142578" type="qcurve" smooth="yes"/>
			<point x="514.4749145508" y="83.3419189453"/>
			<point x="698.1766357422" y="266.8367919922"/>
			<point x="705.6171264648" y="403.0855712891" type="qcurve" smooth="yes"/>
			<point x="713.0576171875" y="530.9904785156"/>
			<point x="575.4669799805" y="688.1558837891"/>
			<point x="481.2334594727" y="759.8296508789" type="qcurve" smooth="yes"/>
			<point x="388.3010864258" y="830.9859619141"/>
			<point x="194.5411987305" y="1015.1624145508"/>
			<point x="198.4181518555" y="1180.9935913086" type="qcurve" smooth="yes"/>
			<point x="202.4635620117" y="1327.8202514648"/>
			<point x="456.34375" y="1527.0942382812"/>
			<point x="644.8613891602" y="1527.2065429688" type="qcurve" smooth="yes"/>
			<point x="802.2258911133" y="1527.3188476562"/>
			<point x="982.1130371094" y="1366.2360229492"/>
			<point x="975.7868652344" y="1237.1091308594" type="qcurve" smooth="yes"/>
			<point x="969.6893310547" y="1114.373046875"/>
			<point x="751.7671508789" y="908.9185791016"/>
			<point x="602.3551635742" y="834.0255737305" type="qcurve"/>
			<point x="533.2164306641" y="904.6256103516" type="line"/>
			<point x="663.0627441406" y="966.7565307617"/>
			<point x="835.994934082" y="1144.9442749023"/>
			<point x="841.6018676758" y="1231.4926147461" type="qcurve" smooth="yes"/>
			<point x="847.3231201172" y="1321.3383789062"/>
			<point x="733.803894043" y="1417.8028564453"/>
			<point x="640.9238891602" y="1417.8028564453" type="qcurve" smooth="yes"/>
			<point x="493.9208374023" y="1417.7467041016"/>
			<point x="360.2510986328" y="1293.350769043"/>
			<point x="360.5880126953" y="1197.2744140625" type="qcurve" smooth="yes"/>
			<point x="360.9810791016" y="1111.3860473633"/>
			<point x="491.3135375977" y="984.122253418"/>
			<point x="612.5088500977" y="889.1177368164" type="qcurve" smooth="yes"/>
			<point x="735.7079467773" y="793.3458862305"/>
			<point x="890.643737793" y="575.9510498047"/>
			<point x="883.4258422852" y="427.4440917969" type="qcurve" smooth="yes"/>
			<point x="875.6010131836" y="255.2348632812"/>
			<point x="575.6251831055" y="-19.8876953125"/>
			<point x="376.8441162109" y="-20" type="qcurve" smooth="yes"/>
			<point x="178.5993652344" y="-20.0561523438"/>
			<point x="-33.7020874023" y="163.067199707"/>
			<point x="-34.6546630859" y="327.2625732422" type="qcurve" smooth="yes"/>
			<point x="-35.719543457" y="493.7026977539"/>
			<point x="279.9202880859" y="772.7199707031"/>
		</contour>
	</outline>
</glyph>
<glyph name="nine" format="2">
	<unicode hex="0039"/>
	<advance width="1085"/>
	<outline>
		<contour>
			<point x="37.3991088867" y="-60.5353393555" type="qcurve"/>
			<point x="-1.5982055664" y="26.5247192383" type="line"/>
			<point x="286.8029174805" y="120.1129760742"/>
			<point x="806.3664550781" y="642.6758422852"/>
			<point x="848.0852661133" y="976.5588378906" type="qcurve" smooth="yes"/>
			<point x="878.2143554688" y="1159.4795532227"/>
			<point x="782.5321044922" y="1414.3774414062"/>
			<point x="661.5958251953" y="1414.43359375" type="qcurve" smooth="yes"/>
			<point x="529.9326171875" y="1414.5458984375"/>
			<point x="316.3311767578" y="1178.4512939453"/>
			<point x="283.6123046875" y="997.5032348633" type="qcurve" smooth="yes"/>
			<point x="251.432800293" y="863.5577392578"/>
			<point x="315.6169433594" y="709.0796508789"/>
			<point x="435.7150878906" y="709.0234985352" type="qcurve" smooth="yes"/>
			<point x="501.6888427734" y="708.9673461914"/>
			<point x="605.0942382812" y="737.6509399414"/>
			<point x="644.5396728516" y="760.848815918" type="qcurve"/>
			<point x="680.2531738281" y="687.4218139648" type="line"/>
			<point x="627.6354980469" y="649.3173217773"/>
			<point x="492.3545532227" y="593.0185546875"/>
			<point x="406.9155883789" y="592.0747070312" type="qcurve" smooth="yes"/>
			<point x="231.8059692383" y="590.1870117188"/>
			<point x="63.2132568359" y="799.2842407227"/>
			<point x="98.2586669922" y="992.0367431641" type="qcurve" smooth="yes"/>
			<point x="134.3602294922" y="1217.5189819336"/>
			<point x="465.3500976562" y="1525.4886474609"/>
			<point x="674.5394897461" y="1525.4324951172" type="qcurve" smooth="yes"/>
			<point x="876.3854370117" y="1525.3763427734"/>
			<point x="1073.3126831055" y="1221.422668457"/>
			<point x="1032.8180541992" y="956.8662719727" type="qcurve" smooth="yes"/>
			<point x="984.4918823242" y="628.373046875"/>
			<point x="397.7649536133" y="44.3130493164"/>
		</contour>
	</outline>
</glyph>
<glyph name="B" format="2">
	<unicode hex="0042"/>
	<advance width="1271"/>
	<outline>
		<contour>
			<point x="-51.9006347656" y="0" type="line"/>
			<point x="-51.2606811523" y="99.9997558594" type="line"/>
			<point x="139.639465332" y="132.9997558594" type="line"/>
			<point x="262.9995117188" y="766" type="line"/>
			<point x="378.6795654297" y="1367.1602783203" type="line"/>
			<point x="183.1890258789" y="1393.1602783203" type="line"/>
			<point x="188.7517089844" y="1500" type="line"/>
			<point x="785.8424072266" y="1500" type="line" smooth="yes"/>
			<point x="992.9064941406" y="1500"/>
			<point x="1168.9852294922" y="1314"/>
			<point x="1159.2048339844" y="1163" type="qcurve" smooth="yes"/>
			<point x="1150.1198120117" y="1020"/>
			<point x="983.5529785156" y="842"/>
			<point x="875.7035522461" y="800" type="qcurve"/>
			<point x="875.3128051758" y="793" type="line"/>
			<point x="1011.198059082" y="770"/>
			<point x="1155.1392822266" y="565"/>
			<point x="1126.661315918" y="387" type="qcurve" smooth="yes"/>
			<point x="1097.1833496094" y="205"/>
			<point x="789.6139526367" y="0"/>
			<point x="529.7836303711" y="0" type="qcurve" smooth="yes"/>
		</contour>
		<contour>
			<point x="306.93359375" y="124.3345947266" type="line"/>
			<point x="323.6029663086" y="106.5568847656" type="line"/>
			<point x="495.5823364258" y="106.5568847656" type="line" smooth="yes"/>
			<point x="718.0051269531" y="106.5568847656"/>
			<point x="921.235168457" y="240"/>
			<point x="941.407409668" y="403" type="qcurve" smooth="yes"/>
			<point x="963.5796508789" y="575"/>
			<point x="824.6703491211" y="726.7769775391"/>
			<point x="652.8632202148" y="726.7769775391" type="qcurve" smooth="yes"/>
			<point x="423.2531738281" y="726.7769775391" type="line"/>
			<point x="416.1420898438" y="700.5548095703" type="line"/>
		</contour>
		<contour>
			<point x="449.4353027344" y="854.22265625" type="line"/>
			<point x="445.7686767578" y="838.333984375" type="line"/>
			<point x="637.6747436523" y="838.333984375" type="line" smooth="yes"/>
			<point x="792.2633666992" y="838.333984375"/>
			<point x="964.8444213867" y="1001"/>
			<point x="976.8842773438" y="1155" type="qcurve" smooth="yes"/>
			<point x="986.2287597656" y="1283"/>
			<point x="853.9083251953" y="1389.7762451172"/>
			<point x="713.4919433594" y="1389.7762451172" type="qcurve" smooth="yes"/>
			<point x="577.6385498047" y="1389.7762451172" type="line"/>
			<point x="551.5997314453" y="1373.9985351562" type="line"/>
		</contour>
	</outline>
	<anchor name="bottom" x="630" y="0"/>
	<anchor name="top" x="630" y="1500"/>
</glyph>
<glyph name="C" format="2">
	<unicode hex="0043"/>
	<advance width="1319"/>
	<outline>
		<contour>
			<point x="85.5566148573" y="842" type="qcurve" smooth="yes"/>
			<point x="163.5566148573" y="1185"/>
			<point x="643.2227499243" y="1545.2645874023"/>
			<point x="974.778902268" y="1523.5711669922" type="qcurve" smooth="yes"/>
			<point x="1070.5734579321" y="1517.358215332"/>
			<point x="1206.2543334961" y="1473.1189575195"/>
			<point x="1255.2985229492" y="1452.228515625" type="qcurve"/>
			<point x="1284.7977294922" y="1439.0412597656" type="line"/>
			<point x="1323.8167114258" y="1439.0412597656" type="line"/>
			<point x="1255.1971435547" y="1048.4468994141" type="line"/>
			<point x="1138.0350341797" y="1048.4468994141" type="line"/>
			<point x="1169.5953369141" y="1260.9016113281" type="line"/>
			<point x="1142.3947753906" y="1325.8677368164"/>
			<point x="1002.6498413086" y="1394.7357177734"/>
			<point x="932.267578125" y="1397.9027099609" type="qcurve" smooth="yes"/>
			<point x="681.8304443359" y="1421.1439208984"/>
			<point x="330.3660630995" y="1135"/>
			<point x="266.0505113416" y="842" type="qcurve" smooth="yes"/>
			<point x="191.4070176893" y="505"/>
			<point x="398.8037135658" y="151.7874145508"/>
			<point x="608.1767604408" y="117.8749389648" type="qcurve" smooth="yes"/>
			<point x="854.3765895424" y="79.3436279297"/>
			<point x="1112.0882310682" y="226.2075805664"/>
			<point x="1161.2585191541" y="318.873840332" type="qcurve"/>
			<point x="1202.1857652479" y="291.651550293" type="line"/>
			<point x="1217.517857533" y="231.317199707" type="line"/>
			<point x="1102.8338038978" y="46.463684082"/>
			<point x="747.4707057533" y="-46.0994262695"/>
			<point x="540.1893663221" y="-13.5712280273" type="qcurve" smooth="yes"/>
			<point x="293.640477162" y="28.4659423828"/>
			<point x="-6.3268690295" y="444"/>
		</contour>
	</outline>
	<anchor name="bottom" x="596" y="0"/>
	<anchor name="top" x="906" y="1500"/>
</glyph>
<glyph name="E" format="2">
	<unicode hex="0045"/>
	<advance width="1192"/>
	<outline>
		<contour>
			<point x="-53.2106933594" y="0" type="line"/>
			<point x="-47.8424682617" y="99.9997558594" type="line"/>
			<point x="140.3403930664" y="130.9997558594" type="line"/>
			<point x="277.7004394531" y="815" type="line"/>
			<point x="379.9404907227" y="1368.1602783203" type="line"/>
			<point x="183.6182250977" y="1393.1602783203" type="line"/>
			<point x="190.7243652344" y="1500" type="line"/>
			<point x="1195.9299926758" y="1500" type="line"/>
			<point x="1157.7467651367" y="1163.0728759766" type="line"/>
			<point x="1055.264831543" y="1163.0728759766" type="line"/>
			<point x="1037.114440918" y="1392.6651611328" type="line"/>
			<point x="573.1273193359" y="1392.6651611328" type="line"/>
			<point x="548.1273193359" y="1367.6651611328" type="line"/>
			<point x="437.4609375" y="794" type="line"/>
			<point x="315.9056396484" y="133.8902587891" type="line"/>
			<point x="337.3500976562" y="107.8902587891" type="line"/>
			<point x="857.817199707" y="107.8902587891" type="line"/>
			<point x="965.2911987305" y="372.4825439453" type="line"/>
			<point x="1069.2931518555" y="372.4825439453" type="line"/>
			<point x="993.3744506836" y="0" type="line"/>
		</contour>
		<contour>
			<point x="355.1450195312" y="736.7772216797" type="line"/>
			<point x="382.5718994141" y="832.0004882812" type="line"/>
			<point x="814.6835327148" y="841.0006103516" type="line"/>
			<point x="883.6560668945" y="1006.5928955078" type="line"/>
			<point x="990.858215332" y="1006.5928955078" type="line"/>
			<point x="898.5795288086" y="541.6291503906" type="line"/>
			<point x="795.5775756836" y="541.6291503906" type="line"/>
			<point x="798.9945678711" y="726.2214355469" type="line"/>
		</contour>
	</outline>
	<anchor name="bottom" x="518" y="0"/>
	<anchor name="ogonek" x="827" y="0"/>
	<anchor name="top" x="789" y="1500"/>
	<anchor name="tonos" x="81" y="1500"/>
</glyph>
<glyph name="F" format="2">
	<unicode hex="0046"/>
	<advance width="1132"/>
	<outline>
		<contour>
			<point x="-55.0251464844" y="0" type="line"/>
			<point x="-49.3851928711" y="99.9997558594" type="line"/>
			<point x="139.6293945312" y="126.9997558594" type="line"/>
			<point x="264.4294433594" y="795" type="line"/>
			<point x="377.1094970703" y="1368.1602783203" type="line"/>
			<point x="183.0645141602" y="1393.1602783203" type="line"/>
			<point x="188.8989257812" y="1500" type="line"/>
			<point x="1141.2821044922" y="1500" type="line"/>
			<point x="1111.9310302734" y="1212.9484863281" type="line"/>
			<point x="1015.1292724609" y="1212.9484863281" type="line"/>
			<point x="986.0356445312" y="1399.1097412109" type="line"/>
			<point x="574.3319091797" y="1402.1097412109" type="line"/>
			<point x="549.3319091797" y="1382.1097412109" type="line"/>
			<point x="432.7766113281" y="781" type="line"/>
			<point x="310.9765625" y="127.9997558594" type="line"/>
			<point x="518.5664672852" y="99.9997558594" type="line"/>
			<point x="502.1982421875" y="0" type="line"/>
		</contour>
		<contour>
			<point x="349.1895751953" y="722.5549316406" type="line"/>
			<point x="374.6031494141" y="815.7784423828" type="line"/>
			<point x="761.8453369141" y="822.4451904297" type="line"/>
			<point x="824.8747558594" y="961.5922851562" type="line"/>
			<point x="928.8767089844" y="961.5922851562" type="line"/>
			<point x="847.9857177734" y="534.4077148438" type="line"/>
			<point x="745.9837646484" y="534.4077148438" type="line"/>
			<point x="746.0672607422" y="700.9992675781" type="line"/>
		</contour>
	</outline>
	<anchor name="bottom" x="578" y="0"/>
	<anchor name="top" x="622" y="1500"/>
</glyph>
<glyph name="G" format="2">
	<unicode hex="0047"/>
	<advance width="1361"/>
	<outline>
		<contour>
			<point x="80.2677256426" y="842" type="qcurve" smooth="yes"/>
			<point x="158.2677256426" y="1185"/>
			<point x="642.147974666" y="1524.2937011719"/>
			<point x="899.0526987871" y="1521.714050293" type="qcurve" smooth="yes"/>
			<point x="987.6823984941" y="1518.3076782227"/>
			<point x="1147.6037852129" y="1465.2951049805"/>
			<point x="1185.8233286699" y="1442.2855834961" type="qcurve" smooth="yes"/>
			<point x="1214.9350471516" y="1440.2856445312" type="line"/>
			<point x="1239.8604011555" y="1424" type="line"/>
			<point x="1166.8452644368" y="1043.8503417969" type="line"/>
			<point x="1049.6831550618" y="1043.8503417969" type="line"/>
			<point x="1075.1824226399" y="1280.3048095703" type="line"/>
			<point x="1059.312403377" y="1323.5777587891"/>
			<point x="927.4070689043" y="1388.215637207"/>
			<point x="849.3941904863" y="1398.9345092773" type="qcurve" smooth="yes"/>
			<point x="662.980005916" y="1423.5779418945"/>
			<point x="328.1581675371" y="1135"/>
			<point x="260.6949717363" y="829" type="qcurve" smooth="yes"/>
			<point x="177.9349619707" y="455.4444580078"/>
			<point x="350.6419321855" y="139.7307739258"/>
			<point x="523.0086314043" y="116.3670654297" type="qcurve" smooth="yes"/>
			<point x="641.8391978105" y="98.9241333008"/>
			<point x="866.6372324785" y="159.8905029297"/>
			<point x="962.0880381426" y="209.1130371094" type="qcurve"/>
			<point x="1034.2171516438" y="561.8802490234" type="line"/>
			<point x="844.4163703938" y="590.440246582" type="line"/>
			<point x="857.2342414876" y="690" type="line"/>
			<point x="1373.2410774251" y="690" type="line"/>
			<point x="1358.7597541829" y="587.8802490234" type="line"/>
			<point x="1200.1509895344" y="561.8802490234" type="line"/>
			<point x="1123.9109993001" y="171.2802734375" type="line"/>
			<point x="1012.2471567949" y="110.6401367188" type="line"/>
			<point x="896.6404063066" y="47.7362670898"/>
			<point x="642.3371226152" y="-28.8569335938"/>
			<point x="480.9228159746" y="-10.8569335938" type="qcurve" smooth="yes"/>
			<point x="227.5449473223" y="16.2844848633"/>
			<point x="-10.7322743574" y="444"/>
		</contour>
	</outline>
	<anchor name="bottom" x="667" y="0"/>
	<anchor name="top" x="907" y="1492"/>
</glyph>
<glyph name="I" format="2">
	<unicode hex="0049"/>
	<advance width="710"/>
	<outline>
		<contour>
			<point x="-48.7224121094" y="0" type="line"/>
			<point x="-36.3541870117" y="98.1197509766" type="line"/>
			<point x="154.274230957" y="128.1197509766" type="line"/>
			<point x="291.4926757812" y="848" type="line"/>
			<point x="385.5860595703" y="1367.1602783203" type="line"/>
			<point x="178.6499633789" y="1393.1602783203" type="line"/>
			<point x="191.2126464844" y="1500" type="line"/>
			<point x="774.4682617188" y="1500" type="line"/>
			<point x="753.5883178711" y="1393.1602783203" type="line"/>
			<point x="561.9598999023" y="1367.1602783203" type="line"/>
			<point x="458.83984375" y="816" type="line"/>
			<point x="324.2080688477" y="127.1197509766" type="line"/>
			<point x="523.1841430664" y="98.1197509766" type="line"/>
			<point x="509.8159179688" y="0" type="line"/>
		</contour>
	</outline>
	<anchor name="bottom" x="220" y="0"/>
	<anchor name="ogonek" x="356" y="0"/>
	<anchor name="top" x="503" y="1500"/>
	<anchor name="tonos" x="81" y="1500"/>
	<anchor name="yu_dash" x="365" y="795"/>
	<anchor name="liga" x="712" y="0"/>
</glyph>
<glyph name="K" format="2">
	<unicode hex="004B"/>
	<advance width="1165"/>
	<outline>
		<contour>
			<point x="-54.1833496094" y="0" type="line"/>
			<point x="-46.8606567383" y="99.9997558594" type="line"/>
			<point x="141.639465332" y="124.9997558594" type="line"/>
			<point x="271.9995117188" y="794" type="line"/>
			<point x="379.6795654297" y="1368.1602783203" type="line"/>
			<point x="183.1890258789" y="1393.1602783203" type="line"/>
			<point x="188.7517089844" y="1500" type="line"/>
			<point x="760.6904296875" y="1500" type="line"/>
			<point x="747.127746582" y="1393.1602783203" type="line"/>
			<point x="557.7200927734" y="1368.1602783203" type="line"/>
			<point x="446.5200195312" y="802" type="line"/>
			<point x="315.2666625977" y="124.9997558594" type="line"/>
			<point x="502.0233764648" y="99.9997558594" type="line"/>
			<point x="494.7006835938" y="0" type="line"/>
		</contour>
		<contour>
			<point x="319.7242431641" y="565.0960083008" type="line"/>
			<point x="352.0893554688" y="716.6034545898" type="line"/>
			<point x="991.3908081055" y="1370.1602783203" type="line"/>
			<point x="848.8688964844" y="1390.1602783203" type="line"/>
			<point x="860.4315795898" y="1500" type="line"/>
			<point x="1322.4415893555" y="1500" type="line"/>
			<point x="1310.87890625" y="1390.1602783203" type="line"/>
			<point x="1144.9927368164" y="1370.1602783203" type="line"/>
		</contour>
		<contour>
			<point x="545.6695556641" y="859.0117797852" type="line"/>
			<point x="675.7345581055" y="970.6119384766" type="line"/>
			<point x="1029.1928710938" y="124.9997558594" type="line"/>
			<point x="1198.7977294922" y="102.9997558594" type="line"/>
			<point x="1187.4750366211" y="0" type="line"/>
			<point x="653.1012573242" y="0" type="line"/>
			<point x="663.4239501953" y="102.9997558594" type="line"/>
			<point x="849.9790039062" y="124.9997558594" type="line"/>
		</contour>
	</outline>
	<anchor name="bottom" x="607" y="0"/>
	<anchor name="top" x="896" y="1500"/>
	<anchor name="kai_tail" x="1201" y="100"/>
</glyph>
<glyph name="L" format="2">
	<unicode hex="004C"/>
	<advance width="1111"/>
	<outline>
		<contour>
			<point x="-58.8850097656" y="0" type="line"/>
			<point x="-51.7305908203" y="99.9997558594" type="line"/>
			<point x="146.2095336914" y="127.9997558594" type="line"/>
			<point x="279.5695800781" y="848" type="line"/>
			<point x="371.2496337891" y="1377.7202758789" type="line"/>
			<point x="177.330078125" y="1392.7202758789" type="line"/>
			<point x="183.3327636719" y="1500" type="line"/>
			<point x="758.1318359375" y="1500" type="line"/>
			<point x="751.1291503906" y="1392.7202758789" type="line"/>
			<point x="548.1834716797" y="1377.7202758789" type="line"/>
			<point x="433.5034179688" y="754" type="line"/>
			<point x="315.392578125" y="129.8902587891" type="line"/>
			<point x="339.392578125" y="102.8902587891" type="line"/>
			<point x="763.1906738281" y="100.8902587891" type="line"/>
			<point x="880.8112792969" y="363.6147460938" type="line"/>
			<point x="997.5334472656" y="363.6147460938" type="line"/>
			<point x="889.1343994141" y="0" type="line"/>
		</contour>
	</outline>
	<anchor name="bottom" x="535" y="0"/>
	<anchor name="centerright" x="755" y="750"/>
	<anchor name="top" x="878" y="1500"/>
	<anchor name="topright" x="804" y="1001"/>
	<anchor name="center" x="397" y="750"/>
	<anchor name="liga" x="1104" y="0"/>
</glyph>
<glyph name="M" format="2">
	<unicode hex="004D"/>
	<advance width="1881"/>
	<outline>
		<contour>
			<point x="-97.302734375" y="0" type="line"/>
			<point x="-89.9800415039" y="99.9997558594" type="line"/>
			<point x="125.7048950195" y="140.9997558594" type="line"/>
			<point x="252.5716552734" y="753" type="line"/>
			<point x="365.3049926758" y="1349.1602783203" type="line"/>
			<point x="171.5151977539" y="1395.1602783203" type="line"/>
			<point x="179.0778808594" y="1500" type="line"/>
			<point x="611.8981323242" y="1500" type="line"/>
			<point x="726.9904785156" y="723.2677612305" type="line"/>
			<point x="790.698059082" y="223.0328979492" type="line"/>
			<point x="804.0396118164" y="120.9453735352" type="line"/>
			<point x="806.0396118164" y="120.9453735352" type="line"/>
			<point x="864.628112793" y="221.2728881836" type="line"/>
			<point x="1152.2766723633" y="764.9475097656" type="line"/>
			<point x="1529.8491821289" y="1500" type="line"/>
			<point x="1930.59375" y="1500" type="line"/>
			<point x="1914.3772583008" y="1394.1602783203" type="line"/>
			<point x="1724.5474853516" y="1358.1602783203" type="line"/>
			<point x="1616.6274414062" y="756" type="line"/>
			<point x="1498.7473754883" y="134.9997558594" type="line"/>
			<point x="1693.1344604492" y="99.9997558594" type="line"/>
			<point x="1686.8117675781" y="0" type="line"/>
			<point x="1122.5451660156" y="0" type="line"/>
			<point x="1126.8678588867" y="99.9997558594" type="line"/>
			<point x="1327.8135375977" y="134.9997558594" type="line"/>
			<point x="1451.4536132812" y="763" type="line"/>
			<point x="1538.2136230469" y="1213.8621826172" type="line"/>
			<point x="1553.0610351562" y="1299.306640625" type="line"/>
			<point x="1551.0610351562" y="1300.306640625" type="line"/>
			<point x="1501.9057006836" y="1215.9848022461" type="line"/>
			<point x="1225.1057739258" y="680.498840332" type="line"/>
			<point x="820.4704589844" y="-7" type="line"/>
			<point x="699.3446655273" y="-7" type="line"/>
			<point x="566.4063110352" y="685.8531494141" type="line"/>
			<point x="491.1995849609" y="1218.9124755859" type="line"/>
			<point x="477.3996582031" y="1345.5555419922" type="line"/>
			<point x="473.3996582031" y="1343.6666259766" type="line"/>
			<point x="455.8264160156" y="1217.6666259766" type="line"/>
			<point x="364.2885742188" y="753" type="line"/>
			<point x="250.3729858398" y="140.9997558594" type="line"/>
			<point x="457.4469604492" y="99.9997558594" type="line"/>
			<point x="444.8070068359" y="0" type="line"/>
		</contour>
	</outline>
	<anchor name="bottom" x="768" y="0"/>
	<anchor name="top" x="1048" y="1500"/>
</glyph>
<glyph name="N" format="2">
	<unicode hex="004E"/>
	<advance width="1530"/>
	<outline>
		<contour>
			<point x="-67.7534179688" y="0" type="line"/>
			<point x="-69.4307250977" y="99.9997558594" type="line"/>
			<point x="136.6293945312" y="124.9997558594" type="line"/>
			<point x="259.4294433594" y="753" type="line"/>
			<point x="375.6694946289" y="1359.1602783203" type="line"/>
			<point x="184.3362426758" y="1395.1602783203" type="line"/>
			<point x="201.8989257812" y="1500" type="line"/>
			<point x="571.9205322266" y="1500" type="line"/>
			<point x="848.5657958984" y="764.2457275391" type="line"/>
			<point x="1016.5338745117" y="351.9847412109" type="line"/>
			<point x="1061.6773681641" y="226.8636474609" type="line"/>
			<point x="1063.6773681641" y="227.8636474609" type="line"/>
			<point x="1090.40625" y="367.8636474609" type="line"/>
			<point x="1165.0452270508" y="751" type="line"/>
			<point x="1283.7252807617" y="1366.6002807617" type="line"/>
			<point x="1068.9409179688" y="1393.6002807617" type="line"/>
			<point x="1079.4387817383" y="1500" type="line"/>
			<point x="1612.3284301758" y="1500" type="line"/>
			<point x="1601.8305664062" y="1393.6002807617" type="line"/>
			<point x="1400.2821655273" y="1366.6002807617" type="line"/>
			<point x="1277.1596069336" y="753" type="line"/>
			<point x="1132.6021118164" y="-8" type="line"/>
			<point x="998.8013305664" y="-8" type="line"/>
			<point x="705.0765991211" y="689.9877929688" type="line"/>
			<point x="518.453125" y="1151.571472168" type="line"/>
			<point x="470.2105102539" y="1282.5699462891" type="line"/>
			<point x="468.2105102539" y="1281.5699462891" type="line"/>
			<point x="445.8944702148" y="1135.5699462891" type="line"/>
			<point x="370.5418701172" y="755" type="line"/>
			<point x="246.1818237305" y="124.9997558594" type="line"/>
			<point x="457.840637207" y="99.9997558594" type="line"/>
			<point x="450.5179443359" y="0" type="line"/>
		</contour>
	</outline>
	<anchor name="bottom" x="640" y="0"/>
	<anchor name="top" x="884" y="1500"/>
	<anchor name="engtail" x="1041" y="0"/>
	<anchor name="liga" x="1432" y="0"/>
</glyph>
<glyph name="S" format="2">
	<unicode hex="0053"/>
	<advance width="977"/>
	<outline>
		<contour>
			<point x="-85.9512939453" y="0.7839355469" type="line"/>
			<point x="-15.0936279297" y="407.5922851562" type="line"/>
			<point x="88.9884033203" y="407.5922851562" type="line"/>
			<point x="82.4165039062" y="345.5568847656" type="line" smooth="yes"/>
			<point x="72.7341308594" y="234.5568847656"/>
			<point x="236.7561035156" y="101.3349609375"/>
			<point x="401.5347290039" y="101.3349609375" type="qcurve" smooth="yes"/>
			<point x="531.6465454102" y="101.3349609375"/>
			<point x="740.9651489258" y="237.2230224609"/>
			<point x="750.9651489258" y="369.6673583984" type="qcurve" smooth="yes"/>
			<point x="760.9651489258" y="523.2145385742"/>
			<point x="572.8931274414" y="644.0032958984"/>
			<point x="423.3532104492" y="749.2727050781" type="qcurve" smooth="yes"/>
			<point x="288.6878662109" y="837.4999389648"/>
			<point x="144.051574707" y="1039.5457763672"/>
			<point x="164.051574707" y="1234.6825561523" type="qcurve" smooth="yes"/>
			<point x="183.051574707" y="1368.50390625"/>
			<point x="423.4898681641" y="1525"/>
			<point x="577.0964355469" y="1525" type="qcurve" smooth="yes"/>
			<point x="687.5442504883" y="1525"/>
			<point x="843.0048217773" y="1460.8946533203"/>
			<point x="875.6342163086" y="1430.0498046875" type="qcurve"/>
			<point x="929.413269043" y="1541.0964355469" type="line"/>
			<point x="1008.2150268555" y="1522.7360839844" type="line"/>
			<point x="944.3573608398" y="1123.4617919922" type="line"/>
			<point x="841.5551147461" y="1123.4617919922" type="line"/>
			<point x="842.0824584961" y="1241.0166015625" type="line"/>
			<point x="862.3231811523" y="1297.2163085938"/>
			<point x="700.8717041016" y="1408.8873291016"/>
			<point x="584.4967041016" y="1408.8873291016" type="qcurve" smooth="yes"/>
			<point x="481.3341064453" y="1408.8873291016"/>
			<point x="319.852722168" y="1317.2623291016"/>
			<point x="305.1573486328" y="1226.0521240234" type="qcurve" smooth="yes"/>
			<point x="291.4619750977" y="1093.3802490234"/>
			<point x="403.8872680664" y="982.4008178711"/>
			<point x="553.6271362305" y="888.8123168945" type="qcurve" smooth="yes"/>
			<point x="706.4590454102" y="775.2935791016"/>
			<point x="906.4665527344" y="562.576965332"/>
			<point x="894.1619262695" y="364.3601074219" type="qcurve" smooth="yes"/>
			<point x="881.4439697266" y="178.4533691406"/>
			<point x="604.0366821289" y="-14"/>
			<point x="412.8747558594" y="-14" type="qcurve" smooth="yes"/>
			<point x="279.1787719727" y="-14"/>
			<point x="103.1651000977" y="53.8614501953"/>
			<point x="47.5894775391" y="98.119140625" type="qcurve"/>
			<point x="-9.1637573242" y="-18.5764160156" type="line"/>
		</contour>
	</outline>
	<anchor name="bottom" x="399" y="0"/>
	<anchor name="top" x="679" y="1500"/>
</glyph>
<glyph name="U" format="2">
	<unicode hex="0055"/>
	<advance width="1506"/>
	<outline>
		<contour>
			<point x="166.9224853516" y="1395.1602783203" type="line"/>
			<point x="177.3168945312" y="1500" type="line"/>
			<point x="731.7207086737" y="1500" type="line"/>
			<point x="721.326299494" y="1395.1602783203" type="line"/>
			<point x="534.9385986328" y="1368.1602783203" type="line"/>
			<point x="416.9118652344" y="801" type="line" smooth="yes"/>
			<point x="371.178527832" y="570.4400024414"/>
			<point x="340.9581298828" y="365"/>
			<point x="344.8075006658" y="274" type="qcurve" smooth="yes"/>
			<point x="353.4478149414" y="233.331237793"/>
			<point x="506.4682672674" y="124.3397216797"/>
			<point x="649.2998102362" y="124.3397216797" type="qcurve" smooth="yes"/>
			<point x="825.2793634588" y="124.3397216797"/>
			<point x="1058.1752374823" y="301.1119384766"/>
			<point x="1092.4509943182" y="482" type="qcurve" smooth="yes"/>
			<point x="1153.3648737127" y="801" type="line"/>
			<point x="1257.5249078924" y="1368.1602783203" type="line"/>
			<point x="1082.9943903143" y="1395.1602783203" type="line"/>
			<point x="1092.0841730291" y="1500" type="line"/>
			<point x="1563.4987848455" y="1500" type="line"/>
			<point x="1553.1043756658" y="1395.1602783203" type="line"/>
			<point x="1384.1932428533" y="1368.1602783203" type="line"/>
			<point x="1267.6173761541" y="801" type="line"/>
			<point x="1211.5062921698" y="480" type="line" smooth="yes"/>
			<point x="1169.3952081854" y="240"/>
			<point x="869.3604791815" y="-5.857421875"/>
			<point x="615.1463678533" y="-5.857421875" type="qcurve" smooth="yes"/>
			<point x="427.6131647283" y="-5.857421875"/>
			<point x="174.1876831055" y="134"/>
			<point x="165.5473688299" y="260" type="qcurve" smooth="yes"/>
			<point x="161.6979980469" y="372"/>
			<point x="203.5646972656" y="583.4133300781"/>
			<point x="244.5646972656" y="801" type="qcurve" smooth="yes"/>
			<point x="354.7247314453" y="1368.1602783203" type="line"/>
		</contour>
	</outline>
	<anchor name="bottom" x="588" y="0"/>
	<anchor name="ogonek" x="810" y="0"/>
	<anchor name="top" x="908" y="1500"/>
	<anchor name="topright" x="1561" y="1500"/>
</glyph>
<glyph name="W" format="2">
	<unicode hex="0057"/>
	<advance width="1944"/>
	<outline>
		<contour>
			<point x="7.1076660156" y="1393.1602783203" type="line"/>
			<point x="19.8193359375" y="1500" type="line"/>
			<point x="616.9113769531" y="1500" type="line"/>
			<point x="605.1997070312" y="1393.1602783203" type="line"/>
			<point x="376.0817871094" y="1365.1602783203" type="line"/>
			<point x="408.0331420898" y="805.7827148438" type="line"/>
			<point x="433.0015258789" y="335.7103881836" type="line"/>
			<point x="434.463684082" y="227.6792602539" type="line"/>
			<point x="446.463684082" y="227.6792602539" type="line"/>
			<point x="514.4630737305" y="328.7870483398" type="line"/>
			<point x="718.8841552734" y="663.6508789062" type="line"/>
			<point x="963.0358276367" y="1095.1135253906" type="line"/>
			<point x="945.2757568359" y="1364.6402587891" type="line"/>
			<point x="763.6033935547" y="1391.6402587891" type="line"/>
			<point x="775.3633422852" y="1500" type="line"/>
			<point x="1315.5679321289" y="1500" type="line"/>
			<point x="1307.3514404297" y="1394.1602783203" type="line"/>
			<point x="1107.3204345703" y="1361.1602783203" type="line"/>
			<point x="1137.7498168945" y="800.0059204102" type="line"/>
			<point x="1164.8392333984" y="334.4005126953" type="line"/>
			<point x="1170.123840332" y="221.092590332" type="line"/>
			<point x="1180.123840332" y="221.092590332" type="line"/>
			<point x="1242.8906860352" y="330.9623413086" type="line"/>
			<point x="1506.9149169922" y="802.8509521484" type="line"/>
			<point x="1795.5143432617" y="1359.1602783203" type="line"/>
			<point x="1584.5272827148" y="1394.1602783203" type="line"/>
			<point x="1594.0899658203" y="1500" type="line"/>
			<point x="2154.8559570312" y="1500" type="line"/>
			<point x="2148.2932739258" y="1393.6002807617" type="line"/>
			<point x="1945.1753540039" y="1362.6002807617" type="line"/>
			<point x="1602.7349243164" y="755.8739624023" type="line"/>
			<point x="1143.4379272461" y="-7.2856445312" type="line"/>
			<point x="1031.4670410156" y="-7.2856445312" type="line"/>
			<point x="983.6225585938" y="878.7650146484" type="line"/>
			<point x="981.0540771484" y="995.9064941406" type="line"/>
			<point x="979.0540771484" y="995.9064941406" type="line"/>
			<point x="854.0821533203" y="724.2031860352" type="line"/>
			<point x="396.2755737305" y="-7.2856445312" type="line"/>
			<point x="295.9182739258" y="-7.2856445312" type="line"/>
			<point x="252.2543334961" y="749.354675293" type="line"/>
			<point x="209.2145996094" y="1364.1602783203" type="line"/>
		</contour>
	</outline>
	<anchor name="bottom" x="691" y="0"/>
	<anchor name="top" x="981" y="1500"/>
</glyph>
<glyph name="Z" format="2">
	<unicode hex="005A"/>
	<advance width="1058"/>
	<outline>
		<contour>
			<point x="-109.6341552734" y="0" type="line"/>
			<point x="-121.1898193359" y="76.6677246094" type="line"/>
			<point x="483.323425293" y="804.3114624023" type="line"/>
			<point x="939.5252075195" y="1376.6651611328" type="line"/>
			<point x="929.5252075195" y="1391.6651611328" type="line"/>
			<point x="315.9072875977" y="1391.6651611328" type="line"/>
			<point x="241.708190918" y="1176.4077148438" type="line"/>
			<point x="126.5060424805" y="1176.4077148438" type="line"/>
			<point x="195.8837280273" y="1500" type="line"/>
			<point x="1196.7811889648" y="1500" type="line"/>
			<point x="1185.6699829102" y="1415.2211914062" type="line"/>
			<point x="610.3963623047" y="708.5212402344" type="line"/>
			<point x="135.4025268555" y="123.8902587891" type="line"/>
			<point x="145.4025268555" y="102.8902587891" type="line"/>
			<point x="767.7660522461" y="102.8902587891" type="line"/>
			<point x="867.049621582" y="315.5922851562" type="line"/>
			<point x="974.5315551758" y="315.5922851562" type="line"/>
			<point x="895.5590209961" y="0" type="line"/>
		</contour>
	</outline>
	<anchor name="bottom" x="383" y="0"/>
	<anchor name="top" x="643" y="1500"/>
	<anchor name="_liga" x="0" y="0"/>
</glyph>
<glyph name="a" format="2">
	<unicode hex="0061"/>
	<advance width="998"/>
	<outline>
		<contour>
			<point x="-41.2473144531" y="218" type="qcurve" smooth="yes"/>
			<point x="-32.9533081055" y="497.9188232422"/>
			<point x="402.7420043945" y="1008.9187011719"/>
			<point x="630.0874023438" y="1008.9187011719" type="qcurve" smooth="yes"/>
			<point x="690.975769043" y="1008.9187011719"/>
			<point x="722.4812011719" y="977.9187011719"/>
			<point x="726.8339233398" y="958.9187011719" type="qcurve"/>
			<point x="823.0748901367" y="1023.9187011719" type="line"/>
			<point x="881.4898071289" y="1023.9187011719" type="line"/>
			<point x="905.4709472656" y="873.9187011719" type="line"/>
			<point x="785.2677001953" y="367" type="line"/>
			<point x="750.674621582" y="213" type="line"/>
			<point x="750.1820678711" y="145"/>
			<point x="769.4069824219" y="75"/>
			<point x="788.764465332" y="14" type="qcurve"/>
			<point x="612.0756225586" y="-23.7202148438" type="line"/>
			<point x="583.916809082" y="30.5757446289"/>
			<point x="595.2501220703" y="126.8380737305"/>
			<point x="566.8065185547" y="106.2810058594" type="qcurve"/>
			<point x="489.3199462891" y="58.9607543945"/>
			<point x="293.6399536133" y="-10"/>
			<point x="204.0119628906" y="-10" type="qcurve" smooth="yes"/>
			<point x="87.5552978516" y="-10"/>
			<point x="-45.0491943359" y="103"/>
		</contour>
		<contour>
			<point x="126.1728515625" y="240" type="qcurve" smooth="yes"/>
			<point x="121.9495849609" y="139"/>
			<point x="197.7777099609" y="118.2579345703"/>
			<point x="236.8656005859" y="118.2579345703" type="qcurve" smooth="yes"/>
			<point x="321.9222412109" y="118.2579345703"/>
			<point x="599.0579833984" y="226"/>
			<point x="636.4627685547" y="403" type="qcurve" smooth="yes"/>
			<point x="720.5092773438" y="784.5974121094" type="line"/>
			<point x="712.438293457" y="821.5974121094"/>
			<point x="679.7216186523" y="882.4575195312"/>
			<point x="606.6351318359" y="882.4575195312" type="qcurve" smooth="yes"/>
			<point x="411.3604736328" y="882.4575195312"/>
			<point x="135.4873046875" y="447.9188232422"/>
		</contour>
	</outline>
	<anchor name="bottom" x="345" y="0"/>
	<anchor name="ogonek" x="732" y="0"/>
	<anchor name="top" x="608" y="1000"/>
</glyph>
<glyph name="b" format="2">
	<unicode hex="0062"/>
	<advance width="972"/>
	<outline>
		<contour>
			<point x="79.6566162109" y="157" type="qcurve" smooth="yes"/>
			<point x="165.7720947266" y="633" type="line"/>
			<point x="294.4173583984" y="1419.9870605469" type="line"/>
			<point x="192.0544433594" y="1468.9870605469" type="line"/>
			<point x="218.4187011719" y="1535.3522949219" type="line"/>
			<point x="414.2803955078" y="1569.3522949219" type="line"/>
			<point x="476.0096435547" y="1502.853515625" type="line"/>
			<point x="316.6153564453" y="601" type="line"/>
			<point x="235.4998779297" y="110" type="line" smooth="yes"/>
			<point x="235.471862793" y="104.4404296875"/>
			<point x="249.5816040039" y="110.1127319336"/>
			<point x="267.8509521484" y="110.1127319336" type="qcurve" smooth="yes"/>
			<point x="500.5592041016" y="110.1127319336"/>
			<point x="783.571472168" y="439.256652832"/>
			<point x="799.8198852539" y="748.7025146484" type="qcurve" smooth="yes"/>
			<point x="803.9771118164" y="832.5405883789"/>
			<point x="757.5952148438" y="888.6830444336"/>
			<point x="692.8182373047" y="888.6830444336" type="qcurve" smooth="yes"/>
			<point x="591.2278442383" y="888.6830444336"/>
			<point x="348.5958862305" y="730.496887207"/>
			<point x="257.1001586914" y="627.4445800781" type="qcurve"/>
			<point x="278.1279907227" y="776.5220947266" type="line"/>
			<point x="338.1062011719" y="846.8961181641"/>
			<point x="663.6661376953" y="1026.7025146484"/>
			<point x="776.5256958008" y="1026.7025146484" type="qcurve" smooth="yes"/>
			<point x="868.8236694336" y="1026.7025146484"/>
			<point x="978.904296875" y="902.7025146484"/>
			<point x="975.7014770508" y="770.7025146484" type="qcurve" smooth="yes"/>
			<point x="964.585144043" y="429.256652832"/>
			<point x="545.9764404297" y="-13"/>
			<point x="234.0131225586" y="-13" type="qcurve" smooth="yes"/>
			<point x="159.4947509766" y="-13"/>
			<point x="63.6566162109" y="73"/>
		</contour>
	</outline>
	<anchor name="bottom" x="571" y="0"/>
	<anchor name="top" x="571" y="1533"/>
</glyph>
<glyph name="c" format="2">
	<unicode hex="0063"/>
	<advance width="858"/>
	<outline>
		<contour>
			<point x="10.8477783203" y="502.9323120117" type="qcurve" smooth="yes"/>
			<point x="65.3883056641" y="737.0944213867"/>
			<point x="378.9543457031" y="1025.7216186523"/>
			<point x="574.79296875" y="1025.7216186523" type="qcurve" smooth="yes"/>
			<point x="693.6730957031" y="1025.7216186523"/>
			<point x="839.3364257812" y="914.7977294922"/>
			<point x="839.3364257812" y="814.1975097656" type="qcurve" smooth="yes"/>
			<point x="839.3364257812" y="737.9306640625"/>
			<point x="733.8249511719" y="645.6636962891"/>
			<point x="677.4133300781" y="630.7969970703" type="qcurve"/>
			<point x="638.8752441406" y="651.7969970703" type="line"/>
			<point x="648.8752441406" y="856.7969970703" type="line" smooth="yes"/>
			<point x="650.8752441406" y="878.7969970703"/>
			<point x="598.9111328125" y="916.6539916992"/>
			<point x="533.4273681641" y="916.6539916992" type="qcurve" smooth="yes"/>
			<point x="406.8788452148" y="916.6539916992"/>
			<point x="209.7905273438" y="658.0957641602"/>
			<point x="171.3834228516" y="491.9323120117" type="qcurve" smooth="yes"/>
			<point x="130.1114501953" y="315.5057983398"/>
			<point x="206.9304199219" y="106.5440063477"/>
			<point x="345.5908203125" y="106.5440063477" type="qcurve" smooth="yes"/>
			<point x="484.1333618164" y="106.5440063477"/>
			<point x="677.5662841797" y="223.5340576172"/>
			<point x="727.1322631836" y="273.6669921875" type="qcurve"/>
			<point x="772.3782958984" y="225.1331787109" type="line"/>
			<point x="770.3782958984" y="182.599609375" type="line"/>
			<point x="717.5505371094" y="126.6090087891"/>
			<point x="445.1264648438" y="-19.8569946289"/>
			<point x="290.8062133789" y="-19.8569946289" type="qcurve" smooth="yes"/>
			<point x="93.8428955078" y="-19.8569946289"/>
			<point x="-46.6251831055" y="254.9729003906"/>
		</contour>
	</outline>
	<anchor name="bottom" x="343" y="0"/>
	<anchor name="top" x="600" y="1000"/>
</glyph>
<glyph name="d" format="2">
	<unicode hex="0064"/>
	<advance width="1079"/>
	<outline>
		<contour>
			<point x="-40.2973632812" y="231.6756591797" type="qcurve" smooth="yes"/>
			<point x="-24.2973632812" y="489.9188232422"/>
			<point x="481.3251953125" y="997.1166381836"/>
			<point x="754.4042358398" y="1008.716003418" type="qcurve" smooth="yes"/>
			<point x="813.625793457" y="1008.716003418" type="line"/>
			<point x="882.7484130859" y="1417.4211425781" type="line"/>
			<point x="774.1806640625" y="1470.716796875" type="line"/>
			<point x="800.544921875" y="1537.08203125" type="line"/>
			<point x="998.7142333984" y="1571.08203125" type="line"/>
			<point x="1065.6356201172" y="1542.08203125" type="line"/>
			<point x="860.2030029297" y="386" type="line"/>
			<point x="813.4078369141" y="126.4792480469" type="line"/>
			<point x="921.5659179688" y="135.4792480469" type="line"/>
			<point x="921.5659179688" y="45" type="line"/>
			<point x="710.4742431641" y="-16" type="line"/>
			<point x="651.4364013672" y="88.8447265625" type="line"/>
			<point x="647.2263183594" y="150.7995605469" type="line"/>
			<point x="603.4611206055" y="105.2668457031"/>
			<point x="275.8212280273" y="-10"/>
			<point x="193.4323120117" y="-10" type="qcurve" smooth="yes"/>
			<point x="72.6253051758" y="-10"/>
			<point x="-48.2973632812" y="108.4053955078"/>
		</contour>
		<contour>
			<point x="125.9689941406" y="240.6756591797" type="qcurve" smooth="yes"/>
			<point x="118.9689941406" y="169.8743896484"/>
			<point x="204.5364379883" y="104.1341552734"/>
			<point x="277.9539794922" y="104.1341552734" type="qcurve" smooth="yes"/>
			<point x="390.7546386719" y="104.1341552734"/>
			<point x="681.0595703125" y="247.9337158203"/>
			<point x="716.7493896484" y="443.6007080078" type="qcurve" smooth="yes"/>
			<point x="787.3715209961" y="823.2482299805" type="line"/>
			<point x="771.239440918" y="853.2482299805"/>
			<point x="689.8735351562" y="880.7815551758"/>
			<point x="653.0452270508" y="880.7815551758" type="qcurve" smooth="yes"/>
			<point x="477.0106811523" y="880.7815551758"/>
			<point x="140.9689941406" y="451.3851318359"/>
		</contour>
	</outline>
	<anchor name="bottom" x="604" y="0"/>
	<anchor name="center" x="876" y="1202"/>
	<anchor name="top" x="704" y="1534"/>
	<anchor name="topright" x="1076" y="1000"/>
	<anchor name="liga" x="1067" y="0"/>
</glyph>
<glyph name="e" format="2">
	<unicode hex="0065"/>
	<advance width="906"/>
	<outline>
		<contour>
			<point x="10.825012207" y="502.0539550781" type="qcurve" smooth="yes"/>
			<point x="65.2304077148" y="742.8241577148"/>
			<point x="395.2069702148" y="1021.0673217773"/>
			<point x="579.53515625" y="1021.0673217773" type="qcurve" smooth="yes"/>
			<point x="694.4365844727" y="1021.0673217773"/>
			<point x="829.6032714844" y="913.2564086914"/>
			<point x="839.0822143555" y="853.98046875" type="qcurve" smooth="yes"/>
			<point x="848.8973999023" y="788.3502807617"/>
			<point x="827.3902587891" y="674.7491455078"/>
			<point x="814.3693237305" y="627.3646850586" type="qcurve"/>
			<point x="834.3693237305" y="618.3646850586" type="line"/>
			<point x="800.7423706055" y="527.9255371094" type="line"/>
			<point x="743.2959594727" y="529.9255371094"/>
			<point x="586.1739501953" y="529.7478637695"/>
			<point x="536.0388183594" y="529.9255371094" type="qcurve" smooth="yes"/>
			<point x="108.8201293945" y="527.9255371094" type="line"/>
			<point x="152.4387817383" y="625.3646850586" type="line"/>
			<point x="635.9814453125" y="633.3646850586" type="line"/>
			<point x="646.0725097656" y="664.6349487305"/>
			<point x="661.1991577148" y="745.510925293"/>
			<point x="661.1281738281" y="811.4536743164" type="qcurve" smooth="yes"/>
			<point x="661.7904052734" y="854.5982666016"/>
			<point x="612.079284668" y="905.9545898438"/>
			<point x="555.252746582" y="905.9545898438" type="qcurve" smooth="yes"/>
			<point x="424.2283325195" y="905.9545898438"/>
			<point x="214.3229980469" y="670.033996582"/>
			<point x="170.7149047852" y="479.2637939453" type="qcurve" smooth="yes"/>
			<point x="124.3770751953" y="277.5070800781"/>
			<point x="229.4287109375" y="102.8623046875"/>
			<point x="356.5543212891" y="96.9974365234" type="qcurve" smooth="yes"/>
			<point x="491.2521972656" y="90.48828125"/>
			<point x="648.7828979492" y="168.1561889648"/>
			<point x="735.8845214844" y="277.5094604492" type="qcurve"/>
			<point x="780.0415039062" y="227.651550293" type="line"/>
			<point x="790.0316162109" y="195.4663085938" type="line"/>
			<point x="714.3009643555" y="94.741027832"/>
			<point x="462.8922119141" y="-19.3330078125"/>
			<point x="296.1168212891" y="-13" type="qcurve" smooth="yes"/>
			<point x="130.2063598633" y="-7.3776855469"/>
			<point x="-46.3101196289" y="248.4323730469"/>
		</contour>
	</outline>
	<anchor name="bottom" x="339" y="0"/>
	<anchor name="ogonek" x="495" y="0"/>
	<anchor name="top" x="601" y="1000"/>
</glyph>
<glyph name="f" format="2">
	<unicode hex="0066"/>
	<advance width="564"/>
	<outline>
		<contour>
			<point x="-316.9476318359" y="-445" type="line" smooth="yes"/>
			<point x="-304.7341918945" y="-312.6030883789" type="line"/>
			<point x="-221.2075805664" y="-308.307434082" type="line" smooth="yes"/>
			<point x="-103.2075805664" y="-304.7343139648"/>
			<point x="30.6651611328" y="-201.5207519531"/>
			<point x="85.6651611328" y="100.4792480469" type="qcurve" smooth="yes"/>
			<point x="233.0688476562" y="909.4379882812" type="line"/>
			<point x="239.510559082" y="952.1348876953" type="line"/>
			<point x="287.6324462891" y="1223.0551757812" type="line" smooth="yes"/>
			<point x="319.9702758789" y="1400.3254394531"/>
			<point x="491.4387207031" y="1536.0551757812"/>
			<point x="602.8267822266" y="1536.0551757812" type="qcurve" smooth="yes"/>
			<point x="666.2860107422" y="1536.0551757812"/>
			<point x="748.2531738281" y="1482.0551757812"/>
			<point x="748.2531738281" y="1446.0551757812" type="qcurve" smooth="yes"/>
			<point x="748.2531738281" y="1416.0551757812"/>
			<point x="722.2531738281" y="1373.0551757812"/>
			<point x="704.2531738281" y="1373.0551757812" type="qcurve" smooth="yes"/>
			<point x="692.3264160156" y="1373.0551757812"/>
			<point x="686.2531738281" y="1386.0551757812"/>
			<point x="687.2531738281" y="1397.0551757812" type="qcurve" smooth="yes"/>
			<point x="688.2531738281" y="1373.0810546875"/>
			<point x="636.8748168945" y="1393.4774169922"/>
			<point x="598.6373901367" y="1393.4774169922" type="qcurve" smooth="yes"/>
			<point x="536.9609985352" y="1393.4774169922"/>
			<point x="445.2869873047" y="1293.430847168"/>
			<point x="424.5769042969" y="1156.989074707" type="qcurve" smooth="yes"/>
			<point x="394.4309692383" y="950.1348876953" type="line"/>
			<point x="391.362121582" y="923.3447265625" type="line"/>
			<point x="258.4715576172" y="199" type="line" smooth="yes"/>
			<point x="180.0963745117" y="-225"/>
			<point x="-10.9490966797" y="-464"/>
			<point x="-188.7166748047" y="-464" type="qcurve"/>
		</contour>
		<contour>
			<point x="46.7739257812" y="883.8576660156" type="line"/>
			<point x="37.8438720703" y="951.0649414062" type="line"/>
			<point x="253.9989013672" y="993.0649414062" type="line"/>
			<point x="616.6856689453" y="995.0649414062" type="line"/>
			<point x="597.7556152344" y="891.8576660156" type="line"/>
			<point x="352.2393188477" y="891.8576660156" type="line"/>
			<point x="269.0869750977" y="873.8576660156" type="line"/>
		</contour>
	</outline>
	<anchor name="bottom" x="217" y="0"/>
	<anchor name="top" x="554" y="1536"/>
</glyph>
<glyph name="g" format="2">
	<unicode hex="0067"/>
	<advance width="1058"/>
	<outline>
		<contour>
			<point x="-43.0471191406" y="247" type="qcurve" smooth="yes"/>
			<point x="-33.6414794922" y="502.5134277344"/>
			<point x="424.3501586914" y="1008.4457397461"/>
			<point x="663.2916870117" y="1008.4457397461" type="qcurve" smooth="yes"/>
			<point x="715.1489257812" y="1008.4457397461"/>
			<point x="798.2021484375" y="980.4457397461"/>
			<point x="819.6674194336" y="963.4457397461" type="qcurve"/>
			<point x="867.1283569336" y="1023.4457397461" type="line"/>
			<point x="934.9352416992" y="1023.4457397461" type="line"/>
			<point x="964.2162475586" y="860.4457397461" type="line"/>
			<point x="910.5946655273" y="620" type="line" smooth="yes"/>
			<point x="867.6622314453" y="429.932434082"/>
			<point x="839.7723388672" y="230"/>
			<point x="805.5946655273" y="57" type="qcurve" smooth="yes"/>
			<point x="748.283203125" y="-235"/>
			<point x="328.4865722656" y="-464"/>
			<point x="161.4606933594" y="-464" type="qcurve"/>
			<point x="18.0440063477" y="-424" type="line"/>
			<point x="25.9319458008" y="-325.1888427734" type="line"/>
			<point x="211.0119628906" y="-311.6883544922" type="line" smooth="yes"/>
			<point x="353.5190429688" y="-300.7545166016"/>
			<point x="614.1530151367" y="-136.9758300781"/>
			<point x="647.657409668" y="78.0241699219" type="qcurve" smooth="yes"/>
			<point x="653.0662841797" y="135.2371826172" type="line"/>
			<point x="564.2473754883" y="110.4860839844"/>
			<point x="317.8674316406" y="9"/>
			<point x="208.2061767578" y="9" type="qcurve" smooth="yes"/>
			<point x="93.6600341797" y="9"/>
			<point x="-47.4936523438" y="137"/>
		</contour>
		<contour>
			<point x="125.6423339844" y="261" type="qcurve" smooth="yes"/>
			<point x="122.1297607422" y="188.0004882812"/>
			<point x="209.7029418945" y="127.8009033203"/>
			<point x="280.8298950195" y="127.8009033203" type="qcurve" smooth="yes"/>
			<point x="402.3052978516" y="127.8009033203"/>
			<point x="676.5086669922" y="246.6669921875"/>
			<point x="703.0208129883" y="379.1339111328" type="qcurve" smooth="yes"/>
			<point x="790.3087768555" y="811.9115600586" type="line"/>
			<point x="783.9087524414" y="838.266784668"/>
			<point x="688.6197509766" y="885.311340332"/>
			<point x="625.4710693359" y="885.311340332" type="qcurve" smooth="yes"/>
			<point x="439.1348266602" y="885.311340332"/>
			<point x="132.0023803711" y="473.2474975586"/>
		</contour>
	</outline>
	<anchor name="bottom" x="324" y="-416"/>
	<anchor name="top" x="603" y="1000"/>
</glyph>
<glyph name="h" format="2">
	<unicode hex="0068"/>
	<advance width="1081"/>
	<outline>
		<contour>
			<point x="23.2425537109" y="-22.6918945312" type="line"/>
			<point x="2.4735107422" y="52.2697753906" type="line"/>
			<point x="115.3963623047" y="491.8088378906" type="line"/>
			<point x="278.8233642578" y="1416.908203125" type="line"/>
			<point x="156.2172851562" y="1469.6357421875" type="line"/>
			<point x="182.5815429688" y="1536.0009765625" type="line"/>
			<point x="400.7891845703" y="1581.5007324219" type="line"/>
			<point x="463.5770263672" y="1515.001953125" type="line"/>
			<point x="292.2779541016" y="587.5769042969" type="line"/>
			<point x="188.7393798828" y="86.5769042969" type="line"/>
			<point x="209.1624755859" y="7" type="line"/>
		</contour>
		<contour>
			<point x="694.091796875" y="-15.1538085938" type="line"/>
			<point x="654.7463378906" y="121.7292480469" type="line"/>
			<point x="804.5661621094" y="794.7398071289" type="line" smooth="yes"/>
			<point x="809.2876586914" y="810.9940795898"/>
			<point x="737.5562133789" y="884.0921020508"/>
			<point x="662.5872192383" y="884.0921020508" type="qcurve" smooth="yes"/>
			<point x="553.2572631836" y="884.0921020508"/>
			<point x="317.4834594727" y="688.5650024414"/>
			<point x="221.2749633789" y="574.2086791992" type="qcurve"/>
			<point x="216.6140136719" y="680.1348876953" type="line"/>
			<point x="337.7875976562" y="843.150390625"/>
			<point x="624.4418945312" y="1020.1348876953"/>
			<point x="739.6986083984" y="1020.1348876953" type="qcurve" smooth="yes"/>
			<point x="859.6378173828" y="1020.1348876953"/>
			<point x="986.1534423828" y="858.0323486328"/>
			<point x="958.5399169922" y="741.1348876953" type="qcurve" smooth="yes"/>
			<point x="812.6428222656" y="134.001953125" type="line"/>
			<point x="958.4144287109" y="134.001953125" type="line"/>
			<point x="958.4144287109" y="46" type="line"/>
		</contour>
	</outline>
	<anchor name="bottom" x="420" y="0"/>
	<anchor name="center" x="347" y="1202"/>
	<anchor name="top" x="424" y="1534"/>
</glyph>
<glyph name="k" format="2">
	<unicode hex="006B"/>
	<advance width="1010"/>
	<outline>
		<contour>
			<point x="562.5339355469" y="492.5429077148" type="line"/>
			<point x="120.1010742188" y="156.0310058594" type="line"/>
			<point x="126.4416503906" y="268.0579223633" type="line"/>
			<point x="751.1422729492" y="755.2052612305" type="line"/>
			<point x="764.5693359375" y="817.6459960938"/>
			<point x="714.3254394531" y="914.2161254883"/>
			<point x="664.6607055664" y="914.2161254883" type="qcurve" smooth="yes"/>
			<point x="556.2490844727" y="914.2161254883"/>
			<point x="329.8826904297" y="694.9414672852"/>
			<point x="283.4919433594" y="601.9959106445" type="qcurve"/>
			<point x="271.2843017578" y="551.9882202148" type="line"/>
			<point x="191.0469970703" y="102.7302246094" type="line"/>
			<point x="204.7010498047" y="17.9995117188" type="line"/>
			<point x="20.5118408203" y="-10" type="line"/>
			<point x="6.5118408203" y="69" type="line"/>
			<point x="112.5118408203" y="527" type="line"/>
			<point x="274.7850341797" y="1418.4665527344" type="line"/>
			<point x="132.5802001953" y="1470.716796875" type="line"/>
			<point x="158.9444580078" y="1537.08203125" type="line"/>
			<point x="394.0201416016" y="1574.08203125" type="line"/>
			<point x="456.3262939453" y="1507.0063476562" type="line"/>
			<point x="313.7501831055" y="785.4403686523" type="line"/>
			<point x="377.1318359375" y="859.9522094727"/>
			<point x="572.9099731445" y="1024.796875"/>
			<point x="700.5013427734" y="1024.796875" type="qcurve" smooth="yes"/>
			<point x="799.0368652344" y="1024.796875"/>
			<point x="902.9257202148" y="911.0579223633"/>
			<point x="895.1459350586" y="832.7086181641" type="qcurve" smooth="yes"/>
			<point x="898.1759643555" y="733.1857910156" type="line"/>
			<point x="890.8630981445" y="713.0524902344" type="line"/>
			<point x="576.4235839844" y="511.0307006836" type="line"/>
		</contour>
		<contour>
			<point x="615.5841674805" y="597.3450927734" type="line"/>
			<point x="844.2103271484" y="158.078125" type="line"/>
			<point x="976.3471679688" y="158.078125" type="line"/>
			<point x="973.3471679688" y="68.076171875" type="line"/>
			<point x="788.9198608398" y="-3" type="line" smooth="yes"/>
			<point x="763.7031860352" y="-13.9405517578"/>
			<point x="732.7593383789" y="10.3076171875"/>
			<point x="695.2930908203" y="68" type="qcurve" smooth="yes"/>
			<point x="490.2622070312" y="513.1382446289" type="line"/>
		</contour>
	</outline>
	<anchor name="bottom" x="448" y="0"/>
	<anchor name="top" x="578" y="1534"/>
</glyph>
<glyph name="m" format="2">
	<unicode hex="006D"/>
	<advance width="1685"/>
	<outline>
		<contour>
			<point x="53.9230957031" y="-24.9995117188" type="line"/>
			<point x="33.1540527344" y="50.5390625" type="line"/>
			<point x="143.7692871094" y="527" type="line"/>
			<point x="191.8910522461" y="838.9048461914" type="line"/>
			<point x="57.6421508789" y="834.9048461914" type="line"/>
			<point x="61.5967407227" y="925.2024536133" type="line"/>
			<point x="251.497253418" y="1010.2024536133" type="line"/>
			<point x="317.6889038086" y="1010.2024536133" type="line"/>
			<point x="342.9170532227" y="722.5996704102" type="line"/>
			<point x="318.9201660156" y="588" type="line"/>
			<point x="213.9201660156" y="88" type="line"/>
			<point x="234.9201660156" y="5" type="line"/>
		</contour>
		<contour>
			<point x="674.1326904297" y="-7.4230957031" type="line"/>
			<point x="646.1326904297" y="69.5769042969" type="line"/>
			<point x="786.6914672852" y="683.1977539062" type="line" smooth="yes"/>
			<point x="811.2561645508" y="793.7323608398"/>
			<point x="786.0801391602" y="901.0679931641"/>
			<point x="704.627746582" y="901.0679931641" type="qcurve" smooth="yes"/>
			<point x="610.0912475586" y="901.0679931641"/>
			<point x="342.1237182617" y="697.8433227539"/>
			<point x="289.6143188477" y="681.8689575195" type="qcurve"/>
			<point x="267.7478637695" y="759.869934082" type="line"/>
			<point x="345.110534668" y="863.1813354492"/>
			<point x="641.3792114258" y="1022.2022705078"/>
			<point x="733.3145141602" y="1022.2022705078" type="qcurve" smooth="yes"/>
			<point x="855.6216430664" y="1022.2022705078"/>
			<point x="992.2839355469" y="879.1166992188"/>
			<point x="958.0781860352" y="747.7791748047" type="qcurve" smooth="yes"/>
			<point x="826.5911865234" y="128.1528320312" type="line"/>
			<point x="868.1292724609" y="26.3071289062" type="line"/>
		</contour>
		<contour>
			<point x="1301.337890625" y="-18.4997558594" type="line"/>
			<point x="1257.9924316406" y="115.3833007812" type="line"/>
			<point x="1394.512878418" y="723.2355957031" type="line" smooth="yes"/>
			<point x="1410.6161499023" y="796.6168823242"/>
			<point x="1375.7581176758" y="899.0679931641"/>
			<point x="1286.9214477539" y="899.0679931641" type="qcurve" smooth="yes"/>
			<point x="1188.9920043945" y="899.0679931641"/>
			<point x="945.8057250977" y="715.2355957031"/>
			<point x="891.9872436523" y="687.7585449219" type="qcurve"/>
			<point x="863.4362182617" y="770.6031494141" type="line"/>
			<point x="959.3457641602" y="885.1893310547"/>
			<point x="1211.0275268555" y="1024.2022705078"/>
			<point x="1319.0192260742" y="1024.2022705078" type="qcurve" smooth="yes"/>
			<point x="1427.1139526367" y="1024.2022705078"/>
			<point x="1599.7412109375" y="883.951171875"/>
			<point x="1563.4381713867" y="747.2022705078" type="qcurve" smooth="yes"/>
			<point x="1416.5654296875" y="134.001953125" type="line"/>
			<point x="1562.8143310547" y="134.001953125" type="line"/>
			<point x="1562.8143310547" y="46" type="line"/>
		</contour>
	</outline>
	<anchor name="bottom" x="958" y="0"/>
	<anchor name="top" x="958" y="1000"/>
	<anchor name="cy_descender" x="1572" y="134"/>
</glyph>
<glyph name="n" format="2">
	<unicode hex="006E"/>
	<advance width="1097"/>
	<outline>
		<contour>
			<point x="51.8171386719" y="-14.8168945312" type="line"/>
			<point x="31.0368652344" y="64.1831054688" type="line"/>
			<point x="138.0002441406" y="527" type="line"/>
			<point x="191.8910522461" y="838.8372802734" type="line"/>
			<point x="57.6421508789" y="834.8372802734" type="line"/>
			<point x="61.5967407227" y="925.1348876953" type="line"/>
			<point x="240.5360717773" y="1007.7264404297" type="line"/>
			<point x="311.9198608398" y="1007.7264404297" type="line"/>
			<point x="336.3806762695" y="723.0137939453" type="line"/>
			<point x="313.9567260742" y="598.1348876953" type="line"/>
			<point x="204.0339355469" y="85.1831054688" type="line"/>
			<point x="230.8142089844" y="2.1831054688" type="line"/>
		</contour>
		<contour>
			<point x="688.7802734375" y="-14" type="line"/>
			<point x="664.7591552734" y="75" type="line"/>
			<point x="811.9368286133" y="749.3908081055" type="line" smooth="yes"/>
			<point x="825.3313598633" y="810.6797485352"/>
			<point x="772.582824707" y="885.9290161133"/>
			<point x="694.2096557617" y="885.9290161133" type="qcurve" smooth="yes"/>
			<point x="603.4651489258" y="885.9290161133"/>
			<point x="357.1405029297" y="722.03515625"/>
			<point x="268.9020996094" y="608.7966308594" type="qcurve"/>
			<point x="243.1502075195" y="689.2412109375" type="line"/>
			<point x="337.3508911133" y="849.2587890625"/>
			<point x="642.133605957" y="1026.1347045898"/>
			<point x="749.7841186523" y="1026.1347045898" type="qcurve" smooth="yes"/>
			<point x="878.5729370117" y="1026.1347045898"/>
			<point x="999.5435180664" y="853.4574584961"/>
			<point x="975.0553588867" y="747.1347045898" type="qcurve" smooth="yes"/>
			<point x="831.9857177734" y="134.001953125" type="line"/>
			<point x="976.50390625" y="134.001953125" type="line"/>
			<point x="976.50390625" y="46" type="line"/>
		</contour>
	</outline>
	<anchor name="bottom" x="522" y="0"/>
	<anchor name="top" x="602" y="1000"/>
	<anchor name="liga" x="1173" y="0"/>
</glyph>
<glyph name="o" format="2">
	<unicode hex="006F"/>
	<advance width="977"/>
	<outline>
		<contour>
			<point x="11.2118223811" y="534.9998779297" type="qcurve" smooth="yes"/>
			<point x="66.2758138584" y="773.119140625"/>
			<point x="395.3100545811" y="1034.9683837891"/>
			<point x="588.200252335" y="1021.6130371094" type="qcurve" smooth="yes"/>
			<point x="812.2768514561" y="1005.4155273438"/>
			<point x="979.51861171" y="700.1337890625"/>
			<point x="918.9011534358" y="466.8882446289" type="qcurve" smooth="yes"/>
			<point x="860.3511312412" y="239.6098022461"/>
			<point x="537.3259237217" y="-32.0346679688"/>
			<point x="338.110408585" y="-16.8569946289" type="qcurve" smooth="yes"/>
			<point x="116.11236171" y="0.4082641602"/>
			<point x="-43.8916666103" y="295.3146362305"/>
		</contour>
		<contour>
			<point x="191.5842589045" y="558.0454711914" type="qcurve" smooth="yes"/>
			<point x="135.1853578781" y="360.2015600196"/>
			<point x="207.9741514827" y="102.0322875977"/>
			<point x="355.7475889827" y="88.0938110352" type="qcurve" smooth="yes"/>
			<point x="517.9332074161" y="72.0977939299"/>
			<point x="706.379191983" y="311.0325581803"/>
			<point x="747.2888487483" y="470.9998779297" type="qcurve" smooth="yes"/>
			<point x="793.0488790173" y="653.7553176074"/>
			<point x="722.7815533809" y="899.2129472801"/>
			<point x="569.5975645686" y="911.7166748047" type="qcurve" smooth="yes"/>
			<point x="428.9861143733" y="922.6520996094"/>
			<point x="242.2183352127" y="736.2115295372"/>
		</contour>
	</outline>
	<anchor name="bottom" x="358" y="0"/>
	<anchor name="center" x="461" y="500"/>
	<anchor name="ogonek" x="514" y="0"/>
	<anchor name="top" x="584" y="1000"/>
	<anchor name="topright" x="663" y="1000"/>
	<anchor name="GRKtop" x="584" y="1000"/>
	<anchor name="yu_dash" x="83" y="498"/>
</glyph>
<glyph name="p" format="2">
	<unicode hex="0070"/>
	<advance width="1000"/>
	<outline>
		<contour>
			<point x="-37.7868652344" y="-392" type="line"/>
			<point x="160.6745605469" y="576" type="line"/>
			<point x="184.2079467773" y="729.7427978516" type="line"/>
			<point x="136.0541381836" y="950.3968505859" type="line"/>
			<point x="238.3598022461" y="1023.9727783203" type="line"/>
			<point x="300.1666870117" y="1023.9727783203" type="line"/>
			<point x="335.7774047852" y="816.3065185547" type="line"/>
			<point x="416.0194091797" y="897.3062744141"/>
			<point x="643.3646850586" y="1029.9725952148"/>
			<point x="746.916015625" y="1029.9725952148" type="qcurve" smooth="yes"/>
			<point x="854.6793212891" y="1029.9725952148"/>
			<point x="955.6293334961" y="902.0808105469"/>
			<point x="950.0051269531" y="729.3790283203" type="qcurve" smooth="yes"/>
			<point x="943.3557739258" y="428.9188232422"/>
			<point x="574.6987915039" y="-7"/>
			<point x="335.5975341797" y="-7" type="qcurve" smooth="yes"/>
			<point x="300.7547607422" y="-7"/>
			<point x="232.3333740234" y="16"/>
			<point x="204.556640625" y="36" type="qcurve"/>
			<point x="132.5622558594" y="-343.9780273438" type="line"/>
			<point x="270.1300048828" y="-384.3645019531" type="line"/>
			<point x="241.7657470703" y="-464.7297363281" type="line"/>
			<point x="95.9423828125" y="-499.4987792969" type="line"/>
		</contour>
		<contour>
			<point x="232.8892211914" y="182.2665405273" type="line"/>
			<point x="235.2225952148" y="153.1342773438"/>
			<point x="299.3552856445" y="113.6677246094"/>
			<point x="357.8634643555" y="113.6677246094" type="qcurve" smooth="yes"/>
			<point x="542.0679321289" y="113.6677246094"/>
			<point x="764.028503418" y="475.4610595703"/>
			<point x="769.3225097656" y="683.4938354492" type="qcurve" smooth="yes"/>
			<point x="773.657409668" y="793.1647949219"/>
			<point x="734.2065429688" y="902.1716918945"/>
			<point x="663.5099487305" y="901.1716918945" type="qcurve" smooth="yes"/>
			<point x="582.1634521484" y="900.1716918945"/>
			<point x="383.9050292969" y="756.9719238281"/>
			<point x="331.0438842773" y="689.7055664062" type="qcurve"/>
			<point x="305.556640625" y="575" type="line"/>
		</contour>
	</outline>
	<anchor name="bottom" x="599" y="0"/>
	<anchor name="top" x="599" y="1000"/>
</glyph>
<glyph name="q" format="2">
	<unicode hex="0071"/>
	<advance width="1016"/>
	<outline>
		<contour>
			<point x="-45.7568969727" y="238.6756591797" type="qcurve" smooth="yes"/>
			<point x="-37.5289306641" y="532.1215209961"/>
			<point x="396.9273071289" y="1005.7835693359"/>
			<point x="603.7907104492" y="1005.7835693359" type="qcurve" smooth="yes"/>
			<point x="661.212097168" y="1005.7835693359"/>
			<point x="733.587890625" y="970.7835693359"/>
			<point x="750.1869506836" y="947.7835693359" type="qcurve"/>
			<point x="806.1123046875" y="1008.7835693359" type="line"/>
			<point x="871.6887207031" y="1008.7835693359" type="line"/>
			<point x="864.0336914062" y="748.5938720703" type="line"/>
			<point x="820.7369384766" y="508" type="line"/>
			<point x="675.3282470703" y="-312.7255859375" type="line"/>
			<point x="789.4641113281" y="-352.634765625" type="line"/>
			<point x="761.0998535156" y="-433" type="line"/>
			<point x="637.5841064453" y="-474.6918945312" type="line"/>
			<point x="502.7010498047" y="-368.1931152344" type="line"/>
			<point x="615.5472412109" y="196" type="line"/>
			<point x="613.5472412109" y="196" type="line"/>
			<point x="538.8195800781" y="109"/>
			<point x="323.0968017578" y="3"/>
			<point x="200.1274414062" y="3" type="qcurve" smooth="yes"/>
			<point x="81.3631591797" y="3"/>
			<point x="-47.782043457" y="131.7310180664"/>
		</contour>
		<contour>
			<point x="123.8170776367" y="260.6756591797" type="qcurve" smooth="yes"/>
			<point x="120.1268310547" y="182.0739746094"/>
			<point x="201.6105957031" y="127.229309082"/>
			<point x="277.2243652344" y="127.229309082" type="qcurve" smooth="yes"/>
			<point x="399.1693725586" y="127.229309082"/>
			<point x="628.0839233398" y="267.3495483398"/>
			<point x="644.9320068359" y="398" type="qcurve" smooth="yes"/>
			<point x="712.0360717773" y="798.2524414062" type="line"/>
			<point x="707.6146850586" y="835.7854614258"/>
			<point x="646.3536987305" y="881.2524414062"/>
			<point x="595.1351318359" y="881.2524414062" type="qcurve" smooth="yes"/>
			<point x="435.1362915039" y="881.2524414062"/>
			<point x="132.0654907227" y="456.9500732422"/>
		</contour>
	</outline>
	<anchor name="bottom" x="594" y="0"/>
	<anchor name="top" x="594" y="1000"/>
</glyph>
<glyph name="r" format="2">
	<unicode hex="0072"/>
	<advance width="812"/>
	<outline>
		<contour>
			<point x="55.1862792969" y="-10" type="line"/>
			<point x="32.1862792969" y="63" type="line"/>
			<point x="143.1474609375" y="527" type="line"/>
			<point x="180.0770874023" y="838.4275512695" type="line"/>
			<point x="52.8281860352" y="834.9048461914" type="line"/>
			<point x="56.7827758789" y="925.2024536133" type="line"/>
			<point x="270.9899291992" y="1010.2024536133" type="line"/>
			<point x="322.9899291992" y="1010.2024536133" type="line"/>
			<point x="318.4752807617" y="775.9913330078" type="line"/>
			<point x="312.9118041992" y="598.2024536133" type="line"/>
			<point x="229.06640625" y="124.0927734375" type="line"/>
			<point x="358.3153076172" y="124.001953125" type="line"/>
			<point x="358.3153076172" y="46" type="line"/>
		</contour>
		<contour>
			<point x="669.3322143555" y="728.2024536133" type="line"/>
			<point x="690.4750366211" y="893.2061157227" type="line"/>
			<point x="610.0783081055" y="893.2061157227"/>
			<point x="392.0596923828" y="821.8760375977"/>
			<point x="264.377746582" y="640.7473144531" type="qcurve"/>
			<point x="264.0459594727" y="761.2286987305" type="line"/>
			<point x="293.7878417969" y="822.0690307617"/>
			<point x="574.7005004883" y="1028.2022705078"/>
			<point x="675.0175170898" y="1028.2022705078" type="qcurve" smooth="yes"/>
			<point x="755.8812866211" y="1028.2022705078"/>
			<point x="820.0126342773" y="965.9329833984"/>
			<point x="820.0126342773" y="903.2022705078" type="qcurve" smooth="yes"/>
			<point x="820.0126342773" y="832.2022705078"/>
			<point x="733.7164916992" y="728.2024536133"/>
			<point x="687.3322143555" y="728.2024536133" type="qcurve" smooth="yes"/>
		</contour>
	</outline>
	<anchor name="bottom" x="282" y="0"/>
	<anchor name="top" x="486" y="1000"/>
</glyph>
<glyph name="s" format="2">
	<unicode hex="0073"/>
	<advance width="868"/>
	<outline>
		<contour>
			<point x="0.0233764648" y="170" type="qcurve" smooth="yes"/>
			<point x="2.0233764648" y="250"/>
			<point x="96.5785522461" y="310"/>
			<point x="152.3668823242" y="310" type="qcurve" smooth="yes"/>
			<point x="175.9049682617" y="310" type="line"/>
			<point x="175.9049682617" y="130" type="line" smooth="yes"/>
			<point x="175.9049682617" y="110.3471679688"/>
			<point x="280.4607543945" y="89.4786987305"/>
			<point x="359.5973510742" y="89.4786987305" type="qcurve" smooth="yes"/>
			<point x="455.5516967773" y="89.4786987305"/>
			<point x="604.4237670898" y="194.6868286133"/>
			<point x="607.4237670898" y="235.8385620117" type="qcurve" smooth="yes"/>
			<point x="610.4237670898" y="302.16015625"/>
			<point x="520.4699707031" y="376.5634765625"/>
			<point x="373.787902832" y="460.9495849609" type="qcurve" smooth="yes"/>
			<point x="242.8939819336" y="536.1244506836"/>
			<point x="116.7932739258" y="683.3172607422"/>
			<point x="121.3701782227" y="780.2319946289" type="qcurve" smooth="yes"/>
			<point x="125.9470825195" y="874.2933959961"/>
			<point x="348.5646972656" y="1022.2775878906"/>
			<point x="512.3082885742" y="1022.2775878906" type="qcurve" smooth="yes"/>
			<point x="639.6929321289" y="1022.2775878906"/>
			<point x="798.0165405273" y="928.1348876953"/>
			<point x="796.0165405273" y="861.1348876953" type="qcurve" smooth="yes"/>
			<point x="794.0165405273" y="797.1348876953"/>
			<point x="726.7865600586" y="737.1348876953"/>
			<point x="677.0951538086" y="737.1348876953" type="qcurve" smooth="yes"/>
			<point x="643.8263549805" y="737.1348876953" type="line"/>
			<point x="635.0961303711" y="884.2498779297" type="line" smooth="yes"/>
			<point x="637.0961303711" y="862.51171875"/>
			<point x="547.0278320312" y="915.9783325195"/>
			<point x="472.7306518555" y="915.9783325195" type="qcurve" smooth="yes"/>
			<point x="394.0552978516" y="915.9783325195"/>
			<point x="282.12109375" y="841.8513183594"/>
			<point x="280.12109375" y="797.0786743164" type="qcurve" smooth="yes"/>
			<point x="278.12109375" y="744.8908081055"/>
			<point x="366.0765380859" y="663.505859375"/>
			<point x="464.3915405273" y="605.8985595703" type="qcurve" smooth="yes"/>
			<point x="598.0875244141" y="527.9990234375"/>
			<point x="759.4918823242" y="384.2053222656"/>
			<point x="759.4918823242" y="263.3648071289" type="qcurve"/>
			<point x="761.8632202148" y="153.1133422852"/>
			<point x="524.9172363281" y="-21.2855834961"/>
			<point x="310.5020751953" y="-21.2855834961" type="qcurve" smooth="yes"/>
			<point x="169.2351074219" y="-21.2855834961"/>
			<point x="-3.9766235352" y="83"/>
		</contour>
	</outline>
	<anchor name="bottom" x="282" y="0"/>
	<anchor name="top" x="446" y="1000"/>
</glyph>
<glyph name="t" format="2">
	<unicode hex="0074"/>
	<advance width="528"/>
	<outline>
		<contour>
			<point x="138.6229248047" y="-15" type="line"/>
			<point x="41.8936767578" y="47" type="line"/>
			<point x="123.8936767578" y="512" type="line"/>
			<point x="177.6787719727" y="863.7194824219" type="line"/>
			<point x="17.2556762695" y="880.3347167969" type="line"/>
			<point x="29.8557739258" y="946.8685302734" type="line"/>
			<point x="131.8589477539" y="961.9194335938"/>
			<point x="275.6246337891" y="1241.8659667969"/>
			<point x="283.8472900391" y="1247.1348876953" type="qcurve"/>
			<point x="369.1204223633" y="1247.1348876953" type="line"/>
			<point x="391.9661254883" y="1189.2508544922" type="line"/>
			<point x="281.4625244141" y="524" type="line"/>
			<point x="228.0567626953" y="121.7062988281" type="line"/>
			<point x="370.4167480469" y="141.7062988281" type="line"/>
			<point x="370.4167480469" y="58" type="line"/>
		</contour>
		<contour>
			<point x="265.1109008789" y="889.4681396484" type="line"/>
			<point x="305.0444946289" y="996.7353515625" type="line"/>
			<point x="569.1923217773" y="1010.7355957031" type="line"/>
			<point x="573.258972168" y="915.4681396484" type="line"/>
		</contour>
	</outline>
	<anchor name="bottom" x="149" y="0"/>
	<anchor name="center" x="262" y="622"/>
	<anchor name="top" x="322" y="1179"/>
	<anchor name="topright" x="600" y="920"/>
</glyph>
<glyph name="u" format="2">
	<unicode hex="0075"/>
	<advance width="1096"/>
	<outline>
		<contour>
			<point x="756.9290161133" y="-8" type="line"/>
			<point x="696.1604614258" y="124.4599609375" type="line"/>
			<point x="698.3242797852" y="291.0310058594" type="line"/>
			<point x="836.5822753906" y="903.962890625" type="line"/>
			<point x="801.4284667969" y="991.0012207031" type="line"/>
			<point x="971.2717285156" y="1031.2700195312" type="line"/>
			<point x="1021.771484375" y="952.2700195312" type="line"/>
			<point x="846.1585083008" y="234" type="line"/>
			<point x="849.5850219727" y="132.5246582031" type="line"/>
			<point x="974.2203979492" y="132.5246582031" type="line"/>
			<point x="975.174987793" y="47" type="line"/>
		</contour>
		<contour>
			<point x="73.2723999023" y="272" type="qcurve" smooth="yes"/>
			<point x="193.2398681641" y="848.4497070312" type="line"/>
			<point x="56.9909667969" y="836.4497070312" type="line"/>
			<point x="59.9455566406" y="924.2700195312" type="line"/>
			<point x="249.8460693359" y="1010.2700195312" type="line"/>
			<point x="317.3453369141" y="1010.2700195312" type="line"/>
			<point x="354.5753173828" y="902.6945800781" type="line"/>
			<point x="232.2463989258" y="238.0001220703" type="line" smooth="yes"/>
			<point x="220.9122314453" y="177.8671875"/>
			<point x="293.6381225586" y="116.9343261719"/>
			<point x="375.0775756836" y="116.9343261719" type="qcurve" smooth="yes"/>
			<point x="456.9806518555" y="116.9343261719"/>
			<point x="657.2420043945" y="252.5821533203"/>
			<point x="770.7401733398" y="342.8024902344" type="qcurve"/>
			<point x="776.6864624023" y="253.9478759766" type="line"/>
			<point x="689.3574829102" y="146.6981201172"/>
			<point x="419.7495727539" y="-7"/>
			<point x="281.975402832" y="-7" type="qcurve" smooth="yes"/>
			<point x="169.0840454102" y="-7"/>
			<point x="42.9647827148" y="127"/>
		</contour>
	</outline>
	<anchor name="bottom" x="404" y="0"/>
	<anchor name="ogonek" x="871" y="20"/>
	<anchor name="top" x="572" y="1000"/>
	<anchor name="topright" x="915" y="1000"/>
	<anchor name="cy_descender" x="1018" y="134"/>
</glyph>
<glyph name="v" format="2">
	<unicode hex="0076"/>
	<advance width="998"/>
	<outline>
		<contour>
			<point x="225.5010986328" y="-10.2856445312" type="line"/>
			<point x="176.6540527344" y="497.9671020508" type="line"/>
			<point x="147.5020751953" y="823.3900146484" type="line"/>
			<point x="44.9797973633" y="822.2991943359" type="line"/>
			<point x="48.934387207" y="913.5968017578" type="line"/>
			<point x="232.384765625" y="1011.1348876953" type="line"/>
			<point x="301.9990234375" y="1011.1348876953" type="line"/>
			<point x="327.7016601562" y="556.5815429688" type="line"/>
			<point x="347.7734375" y="253.2955932617" type="line"/>
			<point x="351.5936279297" y="159.0159912109" type="line"/>
			<point x="353.5936279297" y="159.0159912109" type="line"/>
			<point x="420.751953125" y="248.4190063477" type="line"/>
			<point x="593.5960693359" y="479.1641235352"/>
			<point x="704.7161254883" y="655.7217407227"/>
			<point x="707.7161254883" y="720.923828125" type="qcurve" smooth="yes"/>
			<point x="710.7161254883" y="797.4127197266"/>
			<point x="619.4876708984" y="911.5740966797"/>
			<point x="621.4876708984" y="952.4757080078" type="qcurve" smooth="yes"/>
			<point x="622.4876708984" y="988.7089233398"/>
			<point x="690.2006835938" y="1052.1909179688"/>
			<point x="737.4224243164" y="1052.1909179688" type="qcurve" smooth="yes"/>
			<point x="779.9713134766" y="1052.1909179688"/>
			<point x="871.043762207" y="959.7412719727"/>
			<point x="867.043762207" y="854.2520141602" type="qcurve" smooth="yes"/>
			<point x="862.043762207" y="732.1263427734"/>
			<point x="639.5631713867" y="365.0734863281"/>
			<point x="331.9030151367" y="-10.2856445312" type="qcurve"/>
		</contour>
	</outline>
	<anchor name="bottom" x="513" y="0"/>
	<anchor name="top" x="513" y="1000"/>
</glyph>
<glyph name="w" format="2">
	<unicode hex="0077"/>
	<advance width="1498"/>
	<outline>
		<contour>
			<point x="220.9013671875" y="-8" type="line"/>
			<point x="150.5246582031" y="491.0939331055" type="line"/>
			<point x="99.0133666992" y="843.8372802734" type="line"/>
			<point x="4.9683227539" y="837.8372802734" type="line"/>
			<point x="8.9229125977" y="929.1348876953" type="line"/>
			<point x="192.732421875" y="1011.1348876953" type="line"/>
			<point x="246.7913818359" y="1011.1348876953" type="line"/>
			<point x="299.6990966797" y="534.4420166016" type="line"/>
			<point x="334.0678710938" y="219.3212890625" type="line"/>
			<point x="338.530090332" y="144.2194824219" type="line"/>
			<point x="340.530090332" y="144.2194824219" type="line"/>
			<point x="383.8280639648" y="218.4258422852" type="line"/>
			<point x="465.2132568359" y="344.5876464844"/>
			<point x="581.8760375977" y="513.4799194336"/>
			<point x="626.142578125" y="582.2857666016" type="qcurve"/>
			<point x="595.3538818359" y="844.3599853516" type="line"/>
			<point x="518.7722167969" y="841.1820068359" type="line"/>
			<point x="521.8315429688" y="933.1348876953" type="line"/>
			<point x="683.5104370117" y="1011.1348876953" type="line"/>
			<point x="741.2617797852" y="1011.1348876953" type="line"/>
			<point x="804.8242797852" y="558.1348876953" type="line"/>
			<point x="843.2052612305" y="208.0319824219" type="line"/>
			<point x="854.7619628906" y="132.5124511719" type="line"/>
			<point x="856.7619628906" y="132.5124511719" type="line"/>
			<point x="923.3275146484" y="200.9501342773" type="line"/>
			<point x="1098.3637084961" y="420.0774536133"/>
			<point x="1241.2512207031" y="717.2873535156"/>
			<point x="1232.7131347656" y="805.9862670898" type="qcurve" smooth="yes"/>
			<point x="1224.1750488281" y="860.4592285156"/>
			<point x="1104.674621582" y="890.7515869141"/>
			<point x="1105.5208129883" y="915.9825439453" type="qcurve" smooth="yes"/>
			<point x="1105.3670043945" y="959.4051513672"/>
			<point x="1165.6736450195" y="1031.1348876953"/>
			<point x="1229.057434082" y="1031.1348876953" type="qcurve" smooth="yes"/>
			<point x="1294.8941650391" y="985.6690673828"/>
			<point x="1383.9421386719" y="946.8277587891"/>
			<point x="1379.9421386719" y="855.2130126953" type="qcurve" smooth="yes"/>
			<point x="1374.9421386719" y="797.3781738281"/>
			<point x="1142.7665405273" y="339.6646728516"/>
			<point x="840.7968139648" y="-8" type="qcurve"/>
			<point x="714.6900024414" y="-8" type="line"/>
			<point x="660.1337890625" y="358.143371582" type="line"/>
			<point x="651.6633300781" y="432.4395141602" type="line"/>
			<point x="649.6633300781" y="432.4395141602" type="line"/>
			<point x="601.2559814453" y="356.182800293" type="line"/>
			<point x="549.4810791016" y="285.6459350586"/>
			<point x="422.8163452148" y="109.5368652344"/>
			<point x="347.0414428711" y="-8" type="qcurve"/>
		</contour>
	</outline>
	<anchor name="bottom" x="787" y="0"/>
	<anchor name="top" x="717" y="1000"/>
</glyph>
<glyph name="x" format="2">
	<unicode hex="0078"/>
	<advance width="965"/>
	<outline>
		<contour>
			<point x="91.897644043" y="-12.4284667969" type="qcurve"/>
			<point x="-7.9092407227" y="38.5715332031" type="line"/>
			<point x="7.2955932617" y="116.9145507812" type="line"/>
			<point x="151.0358276367" y="119.9145507812" type="line" smooth="yes"/>
			<point x="166.6444702148" y="120.6288452148"/>
			<point x="220.184753418" y="184.1505737305"/>
			<point x="236.0706176758" y="213.2758789062" type="qcurve" smooth="yes"/>
			<point x="283.1850585938" y="288.4991455078"/>
			<point x="347.9174194336" y="380.5552978516"/>
			<point x="415.3714599609" y="490.7460327148" type="qcurve"/>
			<point x="296.1439819336" y="860.7464599609" type="line"/>
			<point x="163.6438598633" y="839.8372802734" type="line"/>
			<point x="162.598449707" y="930.1348876953" type="line"/>
			<point x="354.6901245117" y="1017.1348876953" type="line"/>
			<point x="433.1889038086" y="998.1348876953" type="line"/>
			<point x="497.647277832" y="717.0489501953" type="line"/>
			<point x="512.2147216797" y="660.8265380859" type="line"/>
			<point x="514.2147216797" y="660.8265380859" type="line"/>
			<point x="556.700378418" y="725.7847290039" type="line" smooth="yes"/>
			<point x="582.807800293" y="770.396484375"/>
			<point x="621.3223266602" y="836.8500976562"/>
			<point x="656.5643920898" y="887.6442260742" type="qcurve" smooth="yes"/>
			<point x="701.5069580078" y="953.044128418"/>
			<point x="805.9396972656" y="1023.7062988281"/>
			<point x="847.9364624023" y="1023.7062988281" type="qcurve" smooth="yes"/>
			<point x="886.6345214844" y="1023.7062988281"/>
			<point x="913.6621704102" y="976.526184082"/>
			<point x="912.6621704102" y="936.526184082" type="qcurve" smooth="yes"/>
			<point x="910.6621704102" y="896.526184082"/>
			<point x="864.8422851562" y="843.7062988281"/>
			<point x="846.8422851562" y="843.7062988281" type="qcurve"/>
			<point x="832.8422851562" y="854.7062988281" type="line"/>
			<point x="831.9089355469" y="873.4664306641" type="line" smooth="yes"/>
			<point x="830.0422363281" y="867.0660400391"/>
			<point x="819.7791748047" y="879.5057373047"/>
			<point x="809.9188842773" y="879.5057373047" type="qcurve" smooth="yes"/>
			<point x="795.7748413086" y="879.5057373047"/>
			<point x="728.4893188477" y="810.6356201172"/>
			<point x="679.7676391602" y="740.0764160156" type="qcurve" smooth="yes"/>
			<point x="600.4459838867" y="621.0236816406"/>
			<point x="612.5601806641" y="644.3399658203"/>
			<point x="554.071472168" y="545.8248901367" type="qcurve"/>
			<point x="688.1720581055" y="122.8591918945" type="line"/>
			<point x="799.7630004883" y="122.8591918945" type="line"/>
			<point x="796.7630004883" y="45.8572387695" type="line"/>
			<point x="628.325378418" y="-11.1427612305" type="line"/>
			<point x="548.018737793" y="6.8572387695" type="line"/>
			<point x="467.594543457" y="326.1549072266" type="line"/>
			<point x="450.9252929688" y="385.8453979492" type="line"/>
			<point x="448.9252929688" y="385.8453979492" type="line"/>
			<point x="411.9799804688" y="326.9547729492" type="line"/>
			<point x="382.1650390625" y="269.7327880859"/>
			<point x="341.2329711914" y="190.7611083984"/>
			<point x="318.4915771484" y="155.9741210938" type="qcurve" smooth="yes"/>
			<point x="262.4037475586" y="75.4558105469"/>
			<point x="141.4978637695" y="-22.2286376953"/>
		</contour>
	</outline>
	<anchor name="bottom" x="522" y="0"/>
	<anchor name="top" x="522" y="1000"/>
	<anchor name="cy_descender" x="832" y="134"/>
	<anchor name="center" x="432" y="502"/>
</glyph>
<glyph name="y" format="2">
	<unicode hex="0079"/>
	<advance width="1029"/>
	<outline>
		<contour>
			<point x="-228.0801391602" y="-433" type="line"/>
			<point x="-225.0801391602" y="-390" type="line"/>
			<point x="-94.4721069336" y="-388" type="line" smooth="yes"/>
			<point x="21.6143188477" y="-386"/>
			<point x="263.7852172852" y="-99.4663085938"/>
			<point x="305.6010131836" y="-28" type="qcurve" smooth="yes"/>
			<point x="320.8252563477" y="0" type="line"/>
			<point x="269.1486816406" y="0" type="line"/>
			<point x="239.7400512695" y="272.9595336914"/>
			<point x="195.7051391602" y="678.8372802734"/>
			<point x="167.0289916992" y="844.8372802734" type="qcurve"/>
			<point x="44.6428833008" y="833.8372802734" type="line"/>
			<point x="48.5974731445" y="925.1348876953" type="line"/>
			<point x="235.7694091797" y="1011.1348876953" type="line"/>
			<point x="310.0310058594" y="1011.1348876953" type="line"/>
			<point x="334.5338745117" y="965.1348876953" type="line"/>
			<point x="411.5949707031" y="173.6724853516" type="line"/>
			<point x="417.09375" y="75.3020019531" type="line"/>
			<point x="419.09375" y="75.3020019531" type="line"/>
			<point x="489.7615356445" y="167.3958740234" type="line" smooth="yes"/>
			<point x="656.4989624023" y="409.2127685547"/>
			<point x="818.6399536133" y="698.9784545898"/>
			<point x="818.6399536133" y="771.8432006836" type="qcurve" smooth="yes"/>
			<point x="818.6399536133" y="824.8432006836"/>
			<point x="738.7869873047" y="910.8432006836"/>
			<point x="740.7869873047" y="958.8432006836" type="qcurve" smooth="yes"/>
			<point x="741.7869873047" y="990.8432006836"/>
			<point x="796.7481689453" y="1037.8432006836"/>
			<point x="832.9403076172" y="1037.8432006836" type="qcurve" smooth="yes"/>
			<point x="872.4783935547" y="1037.8432006836"/>
			<point x="958.9689331055" y="975.8432006836"/>
			<point x="958.9689331055" y="876.8432006836" type="qcurve" smooth="yes"/>
			<point x="958.9689331055" y="747.8432006836"/>
			<point x="704.2399291992" y="309.6469116211"/>
			<point x="432.4187011719" y="-36.0002441406" type="qcurve" smooth="yes"/>
			<point x="404.5426635742" y="-71.0002441406" type="line" smooth="yes"/>
			<point x="272.3546142578" y="-240.0390625"/>
			<point x="21.5523681641" y="-464"/>
			<point x="-81.4721069336" y="-464" type="qcurve"/>
		</contour>
	</outline>
	<anchor name="bottom" x="782" y="0"/>
	<anchor name="top" x="504" y="1000"/>
</glyph>
<glyph name="z" format="2">
	<unicode hex="007A"/>
	<advance width="713"/>
	<outline>
		<contour>
			<point x="-16.7991943359" y="-2.2000732422" type="line"/>
			<point x="-96.9997558594" y="62.4005126953" type="line"/>
			<point x="1.1533203125" y="189.7338867188"/>
			<point x="216.1485595703" y="485.6714477539"/>
			<point x="276.9664916992" y="568.0768432617" type="qcurve" smooth="yes"/>
			<point x="344.1857910156" y="661.0768432617"/>
			<point x="422.741027832" y="774.3177490234"/>
			<point x="491.6303710938" y="862.2528076172" type="qcurve"/>
			<point x="197.1560058594" y="865.9451904297" type="line"/>
			<point x="166.5541992188" y="810.1312255859" type="line"/>
			<point x="53.9177246094" y="820.1312255859" type="line"/>
			<point x="83.5185546875" y="982.1348876953" type="line"/>
			<point x="114.5185546875" y="1011.1348876953" type="line"/>
			<point x="701.791015625" y="1002.1348876953" type="line"/>
			<point x="711.5910644531" y="938.4678955078" type="line"/>
			<point x="639.2424316406" y="830.4678955078"/>
			<point x="481.7733764648" y="621.486328125"/>
			<point x="402.0494384766" y="505.418762207" type="qcurve" smooth="yes"/>
			<point x="329.1002197266" y="400.0133666992"/>
			<point x="213.5214233398" y="254.3288574219"/>
			<point x="139.6270751953" y="195.2622070312" type="qcurve"/>
			<point x="527.2777709961" y="153.1102294922" type="line"/>
			<point x="547.0267944336" y="172.5775146484" type="line"/>
			<point x="634.9401855469" y="149.1524047852" type="line"/>
			<point x="592.5390625" y="-10" type="line"/>
			<point x="563.5390625" y="-29" type="line"/>
			<point x="46.3658447266" y="66.2666015625" type="line"/>
		</contour>
	</outline>
	<anchor name="bottom" x="443" y="0"/>
	<anchor name="top" x="463" y="1000"/>
	<anchor name="_liga" x="0" y="0"/>
</glyph>
<glyph name="idotless" format="2">
	<unicode hex="0131"/>
	<advance width="528"/>
	<outline>
		<contour>
			<point x="119.1897583008" y="-12" type="line"/>
			<point x="59.9981079102" y="116.4599609375" type="line"/>
			<point x="154.6948852539" y="532.6079711914" type="line"/>
			<point x="213.1403198242" y="842.8372802734" type="line"/>
			<point x="52.3233032227" y="835.8372802734" type="line"/>
			<point x="60.2778930664" y="925.1348876953" type="line"/>
			<point x="282.024597168" y="1018.1348876953" type="line"/>
			<point x="357.6005249023" y="1018.1348876953" type="line"/>
			<point x="386.2536010742" y="893.5216064453" type="line"/>
			<point x="376.5995483398" y="859.1348876953" type="line"/>
			<point x="307.0767211914" y="507.1853637695" type="line"/>
			<point x="233.4556274414" y="137.001953125" type="line"/>
			<point x="377.589050293" y="151.001953125" type="line"/>
			<point x="377.589050293" y="66" type="line"/>
		</contour>
	</outline>
	<anchor name="bottom" x="180" y="0"/>
	<anchor name="top" x="320" y="1000"/>
	<anchor name="ogonek" x="180" y="0"/>
	<anchor name="yu_dash" x="239" y="498"/>
	<anchor name="liga" x="618" y="0"/>
</glyph>
<glyph name="jdotless" format="2">
	<unicode hex="0237"/>
	<advance width="514"/>
	<outline>
		<contour>
			<point x="236.9518432617" y="837.8372802734" type="qcurve"/>
			<point x="90.3164672852" y="835.8372802734" type="line"/>
			<point x="97.2710571289" y="925.1348876953" type="line"/>
			<point x="311.1332397461" y="1018.1348876953" type="line"/>
			<point x="391.4782104492" y="1018.1348876953" type="line"/>
			<point x="421.8619995117" y="894.0985107422" type="line"/>
			<point x="401.6219482422" y="859.1348876953" type="line"/>
			<point x="252.7487792969" y="132" type="line"/>
			<point x="201.7487792969" y="-126.2408447266"/>
			<point x="35.6437988281" y="-464"/>
			<point x="-204.818359375" y="-464" type="qcurve"/>
			<point x="-331.3112792969" y="-435" type="line"/>
			<point x="-314.7199707031" y="-347.7023925781" type="line"/>
			<point x="-200.2270507812" y="-348.7478027344" type="line" smooth="yes"/>
			<point x="-58.8707275391" y="-351.5069580078"/>
			<point x="54.2658691406" y="-92.4249267578"/>
			<point x="97.4020996094" y="138.7517089844" type="qcurve" smooth="yes"/>
			<point x="124.0799560547" y="269.2972412109"/>
			<point x="221.2961425781" y="748.9052124023"/>
		</contour>
	</outline>
	<anchor name="bottom" x="88" y="-436"/>
	<anchor name="top" x="320" y="1000"/>
	<anchor name="_liga" x="0" y="0"/>
</glyph>
